<svg width="448" height="344" viewBox="32 24 448 344" fill="none" xmlns="http://www.w3.org/2000/svg">
<rect x="32" y="24" width="448" height="344" rx="4" fill="#232B36"/>
<g clip-path="url(#clip0_608_4004)">
<path d="M194.882 261.917H189V258.716L194.882 261.917Z" fill="#FFFCEC"/>
<path d="M204.885 261.917H199.691L189 254.986V251.619L189.769 252.116L204.885 261.917Z" fill="#FFFCEC"/>
<path d="M212.759 261.917H208.101L189 247.34V243.787L212.759 261.917Z" fill="#FFFCEC"/>
<path d="M219.19 261.917H214.942L189 238.773V234.984L219.19 261.917Z" fill="#FFFCEC"/>
<path d="M224.589 261.917H220.666L189 228.98V224.903L190.02 225.963L224.589 261.917Z" fill="#FFFCEC"/>
<path d="M229.234 261.917H225.571L225.407 261.717L189 217.523V213.076L190.092 214.401L228.341 260.83L229.234 261.917Z" fill="#FFFCEC"/>
<path d="M233.325 261.917H229.868L225.341 255.474L189 203.75V198.831L190.158 200.48L233.325 261.917Z" fill="#FFFCEC"/>
<path d="M236.982 261.917H233.698L189 186.641V181.102L236.982 261.917Z" fill="#FFFCEC"/>
<path d="M240.319 261.917H237.167L225.232 237.78L189 164.498V158.122L240.319 261.917Z" fill="#FFFCEC"/>
<path d="M243.402 261.917H240.355L189 134.277V129H189.926L190.312 129.961L243.066 261.077L243.115 261.201L243.402 261.917Z" fill="#FFFCEC"/>
<path d="M246.107 261.917H243.141L242.878 261.077L201.171 129H204.136L245.511 260.031L246.107 261.917Z" fill="#FFFCEC"/>
<path d="M248.854 261.917H245.95L245.511 260.031L227.513 182.877L214.974 129.132L214.944 129H217.846L230.341 182.555L248.222 259.213L248.735 261.408L248.854 261.917Z" fill="#FFFCEC"/>
<path d="M251.687 261.917H248.827L248.411 259.213L228.399 129.026L228.395 129H231.255L251.174 258.584L251.687 261.917Z" fill="#FFFCEC"/>
<path d="M254.264 261.917H251.427L251.421 261.834L251.174 258.584L244.274 167.802L241.326 129H244.161L247.095 167.588L253.978 258.138L254.242 261.621L254.264 261.917Z" fill="#FFFCEC"/>
<path d="M256.911 129L256.881 166.011L256.806 258.011L256.802 261.731V261.917H253.974V261.729L253.978 258.138L254.053 166.007L254.083 129H256.911Z" fill="#FFFCEC"/>
<path d="M322 258.592V261.812L321.806 261.917H315.89L322 258.592Z" fill="#FFFCEC"/>
<path d="M322 251.472V254.837L311.081 261.917H305.887L322 251.472Z" fill="#FFFCEC"/>
<path d="M322 243.612V247.167L302.671 261.917H298.013L322 243.612Z" fill="#FFFCEC"/>
<path d="M322 234.781V238.57L295.829 261.917H291.582L322 234.781Z" fill="#FFFCEC"/>
<path d="M322 224.663V228.742L290.106 261.917H286.183L322 224.663Z" fill="#FFFCEC"/>
<path d="M322 212.799V217.246L285.199 261.917H281.538L283.182 259.92L320.68 214.401L322 212.799Z" fill="#FFFCEC"/>
<path d="M322 198.507V203.426L280.904 261.917H277.447L283.116 253.85L320.614 200.48L322 198.507Z" fill="#FFFCEC"/>
<path d="M322 180.718V186.257L277.075 261.917H273.788L274.327 261.009L322 180.718Z" fill="#FFFCEC"/>
<path d="M322 157.66V164.036L273.605 261.917H270.453L283.006 236.529L322 157.66Z" fill="#FFFCEC"/>
<path d="M322 129V133.71L285.585 224.219L270.417 261.917H267.37L267.657 261.203L267.702 261.088L267.706 261.077L282.961 223.164L320.46 129.961L320.846 129H322Z" fill="#FFFCEC"/>
<path d="M309.601 129L309.526 129.237L267.894 261.077L267.891 261.088L267.63 261.917H264.665L264.859 261.303L265.259 260.039L306.636 129H309.601Z" fill="#FFFCEC"/>
<path d="M295.829 129L295.797 129.134L283.221 183.037L265.259 260.039L264.82 261.917H261.918L262.037 261.407L262.55 259.204L280.431 182.555L280.469 182.394L292.926 129H295.829Z" fill="#FFFCEC"/>
<path d="M282.377 129L282.373 129.028L262.361 259.204L261.945 261.917H259.085L259.147 261.514L259.598 258.579L279.517 129H282.377Z" fill="#FFFCEC"/>
<path d="M269.448 129L266.497 167.802L259.597 258.579L259.351 261.836L259.345 261.917H256.508L256.53 261.623L256.805 258.011L263.677 167.588L266.61 129H269.448Z" fill="#FFFCEC"/>
<path d="M230.665 261.431L230.075 261.917H226.499V256.37L229.432 259.931L230.665 261.431Z" fill="#FFFCEC"/>
<path d="M234.831 261.603L234.383 261.917H228.141L226.499 259.581V249.742L234.831 261.603Z" fill="#FFFCEC"/>
<path d="M238.549 261.785L238.327 261.917H232.051L226.499 252.565V241.49L238.549 261.785Z" fill="#FFFCEC"/>
<path d="M241.926 261.974L241.875 262L241.848 261.917H235.587L226.499 243.534V230.774L241.762 261.64L241.897 261.917L241.926 261.974Z" fill="#FFFCEC"/>
<path d="M241.897 261.917L241.926 261.974L241.875 262L241.848 261.917H238.83L226.499 231.267V216.114L230.616 226.348L244.354 260.493L244.427 260.674L244.925 261.917H241.897Z" fill="#FFFCEC"/>
<path d="M247.777 261.917H241.897L241.926 261.974L241.875 262L241.848 261.917L241.762 261.64L230.616 226.348L226.499 213.308V194.771C226.499 194.694 226.499 194.613 226.501 194.535L235.948 224.451L247.033 259.556L247.777 261.917Z" fill="#FFFCEC"/>
<path d="M250.496 261.917H244.687L244.354 260.493L235.948 224.451L227.385 187.747C228.175 184.661 229.476 181.778 231.195 179.186L231.943 182.391L241.405 222.951L249.774 258.827L250.302 261.086L250.496 261.917Z" fill="#FFFCEC"/>
<path d="M253.118 261.917H247.395L247.033 259.556L241.405 222.951L234.109 175.486C234.341 175.235 234.579 174.988 234.822 174.745C236.147 173.419 237.603 172.219 239.167 171.167L246.968 221.915L252.564 258.304L253.118 261.917Z" fill="#FFFCEC"/>
<path d="M255.682 261.917H250.009L249.774 258.827L246.968 221.915L242.949 169.016C243.539 168.733 244.141 168.473 244.753 168.232C245.954 167.759 247.197 167.361 248.473 167.049L248.505 167.48L252.594 221.274L255.386 258.017L255.652 261.514L255.682 261.917Z" fill="#FFFCEC"/>
<path d="M258.295 166.323L258.25 220.336L258.219 258.239L258.216 261.731V261.917H252.56V261.729L252.564 258.303L252.594 221.274L252.639 166.338C253.582 166.246 254.536 166.199 255.501 166.197H255.537C256.466 166.197 257.388 166.24 258.295 166.323Z" fill="#FFFCEC"/>
<path d="M284.575 256.005V261.917H280.697L280.107 261.431L282.09 259.021L284.575 256.005Z" fill="#FFFCEC"/>
<path d="M284.575 249.313V259.151L282.631 261.917H276.389L275.94 261.603L281.958 253.038L284.575 249.313Z" fill="#FFFCEC"/>
<path d="M284.575 240.978V252.06L278.721 261.917H272.443L272.221 261.785L273.109 260.287L284.575 240.978Z" fill="#FFFCEC"/>
<path d="M284.575 230.163V242.924L275.184 261.917H268.924L268.897 261.998L268.846 261.974L268.875 261.917L269.01 261.642L281.737 235.902L284.575 230.163Z" fill="#FFFCEC"/>
<path d="M284.575 215.364V230.519L271.942 261.917H268.924L268.897 261.998L268.846 261.974L268.875 261.917H265.847L266.345 260.676L266.416 260.498L280.154 226.352L281.649 222.636L284.575 215.364Z" fill="#FFFCEC"/>
<path d="M284.575 194.771V212.351L280.154 226.352L269.01 261.642L268.924 261.917L268.897 261.998L268.846 261.974L268.875 261.917H262.995L263.323 260.877L263.739 259.556V259.553L274.824 224.451L284.552 193.648C284.567 194.019 284.575 194.394 284.575 194.771Z" fill="#FFFCEC"/>
<path d="M283.528 187.14L274.824 224.451L266.416 260.498L266.085 261.917H260.276L260.47 261.084L260.998 258.825L269.365 222.962V222.953L278.829 182.391L278.902 182.072L279.654 178.85C281.368 181.36 282.69 184.152 283.528 187.14Z" fill="#FFFCEC"/>
<path d="M276.704 175.211L269.367 222.953V222.962L263.741 259.553V259.556L263.377 261.917H257.654L257.748 261.299L258.219 258.239L263.803 221.905L271.631 170.983C273.23 172.032 274.717 173.234 276.071 174.566L276.135 174.628C276.327 174.819 276.517 175.013 276.704 175.211Z" fill="#FFFCEC"/>
<path d="M267.834 168.878L263.803 221.905L260.998 258.823L260.763 261.917H255.09L255.12 261.516L255.386 258.017L258.25 220.336L262.267 167.48L262.305 166.979C263.654 167.294 264.967 167.702 266.235 168.198C266.776 168.409 267.31 168.635 267.834 168.878Z" fill="#FFFCEC"/>
<path d="M284.575 210.968H279.899V230.773H284.575V210.968Z" fill="#FFFCEC"/>
<path d="M231.174 210.968H226.499V230.773H231.174V210.968Z" fill="#FFFCEC"/>
</g>
<path d="M33.2 398V386.8H36.864C37.7387 386.8 38.4587 386.949 39.024 387.248C39.5893 387.536 40.0107 387.925 40.288 388.416C40.5653 388.907 40.704 389.461 40.704 390.08C40.704 390.699 40.5653 391.259 40.288 391.76C40.0213 392.251 39.6053 392.645 39.04 392.944C38.4747 393.232 37.7493 393.376 36.864 393.376H34.544V398H33.2ZM34.544 392.24H36.832C37.728 392.24 38.368 392.048 38.752 391.664C39.136 391.269 39.328 390.741 39.328 390.08C39.328 389.397 39.136 388.869 38.752 388.496C38.368 388.112 37.728 387.92 36.832 387.92H34.544V392.24ZM42.3853 398V389.968H43.6013L43.7133 391.504C43.8946 391.141 44.1239 390.832 44.4013 390.576C44.6893 390.32 45.0306 390.123 45.4253 389.984C45.8199 389.845 46.2679 389.776 46.7693 389.776V391.184H46.3053C45.9639 391.184 45.6386 391.232 45.3293 391.328C45.0199 391.413 44.7426 391.557 44.4973 391.76C44.2626 391.952 44.0759 392.224 43.9373 392.576C43.7986 392.928 43.7293 393.36 43.7293 393.872V398H42.3853ZM48.4199 398V389.968H49.7639V398H48.4199ZM49.0919 388.24C48.8252 388.24 48.6012 388.155 48.4199 387.984C48.2492 387.803 48.1639 387.579 48.1639 387.312C48.1639 387.045 48.2492 386.832 48.4199 386.672C48.6012 386.501 48.8252 386.416 49.0919 386.416C49.3479 386.416 49.5665 386.501 49.7479 386.672C49.9292 386.832 50.0199 387.045 50.0199 387.312C50.0199 387.579 49.9292 387.803 49.7479 387.984C49.5665 388.155 49.3479 388.24 49.0919 388.24ZM52.104 398V389.968H53.32L53.416 391.12C53.672 390.693 54.0133 390.363 54.44 390.128C54.8667 389.893 55.3413 389.776 55.864 389.776C56.28 389.776 56.6587 389.835 57 389.952C57.3413 390.059 57.64 390.229 57.896 390.464C58.152 390.688 58.36 390.976 58.52 391.328C58.7973 390.837 59.176 390.459 59.656 390.192C60.1467 389.915 60.6693 389.776 61.224 389.776C61.8427 389.776 62.3813 389.904 62.84 390.16C63.3093 390.405 63.672 390.784 63.928 391.296C64.184 391.797 64.312 392.437 64.312 393.216V398H62.984V393.36C62.984 392.549 62.8187 391.941 62.488 391.536C62.1573 391.131 61.688 390.928 61.08 390.928C60.664 390.928 60.2853 391.04 59.944 391.264C59.6133 391.477 59.352 391.792 59.16 392.208C58.9787 392.624 58.888 393.136 58.888 393.744V398H57.544V393.36C57.544 392.549 57.3787 391.941 57.048 391.536C56.7173 391.131 56.248 390.928 55.64 390.928C55.2347 390.928 54.8613 391.04 54.52 391.264C54.1893 391.477 53.928 391.792 53.736 392.208C53.544 392.624 53.448 393.136 53.448 393.744V398H52.104ZM69.0096 398.192C68.359 398.192 67.815 398.08 67.3776 397.856C66.9403 397.621 66.615 397.317 66.4016 396.944C66.1883 396.56 66.0816 396.149 66.0816 395.712C66.0816 395.168 66.2203 394.709 66.4976 394.336C66.7856 393.952 67.1856 393.664 67.6976 393.472C68.2203 393.269 68.8283 393.168 69.5216 393.168H71.6656C71.6656 392.667 71.5856 392.251 71.4256 391.92C71.2763 391.589 71.0523 391.339 70.7536 391.168C70.455 390.997 70.0923 390.912 69.6656 390.912C69.1536 390.912 68.711 391.04 68.3376 391.296C67.9643 391.552 67.735 391.931 67.6496 392.432H66.2736C66.3376 391.856 66.5296 391.376 66.8496 390.992C67.1803 390.597 67.5963 390.299 68.0976 390.096C68.599 389.883 69.1216 389.776 69.6656 389.776C70.4123 389.776 71.031 389.915 71.5216 390.192C72.0123 390.459 72.3803 390.837 72.6256 391.328C72.8816 391.808 73.0096 392.373 73.0096 393.024V398H71.8096L71.7296 396.576C71.623 396.8 71.4843 397.013 71.3136 397.216C71.1536 397.408 70.9616 397.579 70.7376 397.728C70.5243 397.867 70.2736 397.979 69.9856 398.064C69.6976 398.149 69.3723 398.192 69.0096 398.192ZM69.2176 397.056C69.591 397.056 69.927 396.981 70.2256 396.832C70.535 396.672 70.7963 396.459 71.0096 396.192C71.223 395.925 71.383 395.627 71.4896 395.296C71.607 394.955 71.6656 394.608 71.6656 394.256V394.208H69.6336C69.1216 394.208 68.7056 394.272 68.3856 394.4C68.0656 394.517 67.8363 394.688 67.6976 394.912C67.559 395.125 67.4896 395.371 67.4896 395.648C67.4896 395.936 67.5536 396.187 67.6816 396.4C67.8203 396.603 68.0176 396.763 68.2736 396.88C68.5296 396.997 68.8443 397.056 69.2176 397.056ZM75.0728 398V389.968H76.2888L76.4008 391.504C76.5821 391.141 76.8114 390.832 77.0888 390.576C77.3768 390.32 77.7181 390.123 78.1128 389.984C78.5074 389.845 78.9554 389.776 79.4568 389.776V391.184H78.9928C78.6514 391.184 78.3261 391.232 78.0168 391.328C77.7074 391.413 77.4301 391.557 77.1848 391.76C76.9501 391.952 76.7634 392.224 76.6248 392.576C76.4861 392.928 76.4168 393.36 76.4168 393.872V398H75.0728ZM81.8434 401.52L83.8114 397.104H83.3474L80.1954 389.968H81.6514L84.2754 396.096L87.0434 389.968H88.4354L83.2514 401.52H81.8434ZM96.744 398.192C96.0933 398.192 95.5493 398.08 95.112 397.856C94.6747 397.621 94.3493 397.317 94.136 396.944C93.9227 396.56 93.816 396.149 93.816 395.712C93.816 395.168 93.9547 394.709 94.232 394.336C94.52 393.952 94.92 393.664 95.432 393.472C95.9547 393.269 96.5627 393.168 97.256 393.168H99.4C99.4 392.667 99.32 392.251 99.16 391.92C99.0107 391.589 98.7867 391.339 98.488 391.168C98.1893 390.997 97.8267 390.912 97.4 390.912C96.888 390.912 96.4453 391.04 96.072 391.296C95.6987 391.552 95.4693 391.931 95.384 392.432H94.008C94.072 391.856 94.264 391.376 94.584 390.992C94.9147 390.597 95.3307 390.299 95.832 390.096C96.3333 389.883 96.856 389.776 97.4 389.776C98.1467 389.776 98.7653 389.915 99.256 390.192C99.7467 390.459 100.115 390.837 100.36 391.328C100.616 391.808 100.744 392.373 100.744 393.024V398H99.544L99.464 396.576C99.3573 396.8 99.2187 397.013 99.048 397.216C98.888 397.408 98.696 397.579 98.472 397.728C98.2587 397.867 98.008 397.979 97.72 398.064C97.432 398.149 97.1067 398.192 96.744 398.192ZM96.952 397.056C97.3253 397.056 97.6613 396.981 97.96 396.832C98.2693 396.672 98.5307 396.459 98.744 396.192C98.9573 395.925 99.1173 395.627 99.224 395.296C99.3413 394.955 99.4 394.608 99.4 394.256V394.208H97.368C96.856 394.208 96.44 394.272 96.12 394.4C95.8 394.517 95.5707 394.688 95.432 394.912C95.2933 395.125 95.224 395.371 95.224 395.648C95.224 395.936 95.288 396.187 95.416 396.4C95.5547 396.603 95.752 396.763 96.008 396.88C96.264 396.997 96.5787 397.056 96.952 397.056ZM102.807 401.52V389.968H104.023L104.151 391.28C104.322 391.024 104.54 390.784 104.807 390.56C105.074 390.325 105.394 390.139 105.767 390C106.14 389.851 106.572 389.776 107.063 389.776C107.842 389.776 108.519 389.963 109.095 390.336C109.682 390.699 110.135 391.2 110.455 391.84C110.786 392.469 110.951 393.189 110.951 394C110.951 394.811 110.786 395.531 110.455 396.16C110.135 396.789 109.682 397.285 109.095 397.648C108.508 398.011 107.826 398.192 107.047 398.192C106.396 398.192 105.82 398.059 105.319 397.792C104.818 397.525 104.428 397.152 104.151 396.672V401.52H102.807ZM106.887 397.024C107.42 397.024 107.89 396.901 108.295 396.656C108.7 396.4 109.015 396.043 109.239 395.584C109.474 395.125 109.591 394.592 109.591 393.984C109.591 393.376 109.474 392.843 109.239 392.384C109.015 391.925 108.7 391.573 108.295 391.328C107.89 391.072 107.42 390.944 106.887 390.944C106.354 390.944 105.884 391.072 105.479 391.328C105.074 391.573 104.759 391.925 104.535 392.384C104.311 392.843 104.199 393.376 104.199 393.984C104.199 394.592 104.311 395.125 104.535 395.584C104.759 396.043 105.074 396.4 105.479 396.656C105.884 396.901 106.354 397.024 106.887 397.024ZM112.838 401.52V389.968H114.054L114.182 391.28C114.353 391.024 114.572 390.784 114.838 390.56C115.105 390.325 115.425 390.139 115.798 390C116.172 389.851 116.604 389.776 117.094 389.776C117.873 389.776 118.55 389.963 119.126 390.336C119.713 390.699 120.166 391.2 120.486 391.84C120.817 392.469 120.982 393.189 120.982 394C120.982 394.811 120.817 395.531 120.486 396.16C120.166 396.789 119.713 397.285 119.126 397.648C118.54 398.011 117.857 398.192 117.078 398.192C116.428 398.192 115.852 398.059 115.35 397.792C114.849 397.525 114.46 397.152 114.182 396.672V401.52H112.838ZM116.918 397.024C117.452 397.024 117.921 396.901 118.326 396.656C118.732 396.4 119.046 396.043 119.27 395.584C119.505 395.125 119.622 394.592 119.622 393.984C119.622 393.376 119.505 392.843 119.27 392.384C119.046 391.925 118.732 391.573 118.326 391.328C117.921 391.072 117.452 390.944 116.918 390.944C116.385 390.944 115.916 391.072 115.51 391.328C115.105 391.573 114.79 391.925 114.566 392.384C114.342 392.843 114.23 393.376 114.23 393.984C114.23 394.592 114.342 395.125 114.566 395.584C114.79 396.043 115.105 396.4 115.51 396.656C115.916 396.901 116.385 397.024 116.918 397.024ZM122.87 398V386.48H124.214V398H122.87ZM126.576 398V389.968H127.92V398H126.576ZM127.248 388.24C126.981 388.24 126.757 388.155 126.576 387.984C126.405 387.803 126.32 387.579 126.32 387.312C126.32 387.045 126.405 386.832 126.576 386.672C126.757 386.501 126.981 386.416 127.248 386.416C127.504 386.416 127.723 386.501 127.904 386.672C128.085 386.832 128.176 387.045 128.176 387.312C128.176 387.579 128.085 387.803 127.904 387.984C127.723 388.155 127.504 388.24 127.248 388.24ZM133.908 398.192C133.151 398.192 132.468 398.016 131.86 397.664C131.263 397.312 130.788 396.821 130.436 396.192C130.095 395.563 129.924 394.827 129.924 393.984C129.924 393.141 130.095 392.405 130.436 391.776C130.788 391.147 131.263 390.656 131.86 390.304C132.468 389.952 133.151 389.776 133.908 389.776C134.868 389.776 135.668 390.027 136.308 390.528C136.948 391.019 137.354 391.68 137.524 392.512H136.148C136.042 392.011 135.78 391.621 135.364 391.344C134.948 391.067 134.458 390.928 133.892 390.928C133.434 390.928 133.007 391.045 132.612 391.28C132.228 391.504 131.914 391.845 131.668 392.304C131.423 392.752 131.3 393.312 131.3 393.984C131.3 394.485 131.37 394.928 131.508 395.312C131.658 395.696 131.85 396.021 132.084 396.288C132.319 396.544 132.591 396.736 132.9 396.864C133.22 396.992 133.551 397.056 133.892 397.056C134.276 397.056 134.623 396.997 134.932 396.88C135.242 396.752 135.503 396.571 135.716 396.336C135.93 396.091 136.074 395.797 136.148 395.456H137.524C137.354 396.277 136.943 396.939 136.292 397.44C135.652 397.941 134.858 398.192 133.908 398.192ZM142.041 398.192C141.39 398.192 140.846 398.08 140.409 397.856C139.972 397.621 139.646 397.317 139.433 396.944C139.22 396.56 139.113 396.149 139.113 395.712C139.113 395.168 139.252 394.709 139.529 394.336C139.817 393.952 140.217 393.664 140.729 393.472C141.252 393.269 141.86 393.168 142.553 393.168H144.697C144.697 392.667 144.617 392.251 144.457 391.92C144.308 391.589 144.084 391.339 143.785 391.168C143.486 390.997 143.124 390.912 142.697 390.912C142.185 390.912 141.742 391.04 141.369 391.296C140.996 391.552 140.766 391.931 140.681 392.432H139.305C139.369 391.856 139.561 391.376 139.881 390.992C140.212 390.597 140.628 390.299 141.129 390.096C141.63 389.883 142.153 389.776 142.697 389.776C143.444 389.776 144.062 389.915 144.553 390.192C145.044 390.459 145.412 390.837 145.657 391.328C145.913 391.808 146.041 392.373 146.041 393.024V398H144.841L144.761 396.576C144.654 396.8 144.516 397.013 144.345 397.216C144.185 397.408 143.993 397.579 143.769 397.728C143.556 397.867 143.305 397.979 143.017 398.064C142.729 398.149 142.404 398.192 142.041 398.192ZM142.249 397.056C142.622 397.056 142.958 396.981 143.257 396.832C143.566 396.672 143.828 396.459 144.041 396.192C144.254 395.925 144.414 395.627 144.521 395.296C144.638 394.955 144.697 394.608 144.697 394.256V394.208H142.665C142.153 394.208 141.737 394.272 141.417 394.4C141.097 394.517 140.868 394.688 140.729 394.912C140.59 395.125 140.521 395.371 140.521 395.648C140.521 395.936 140.585 396.187 140.713 396.4C140.852 396.603 141.049 396.763 141.305 396.88C141.561 396.997 141.876 397.056 142.249 397.056ZM151.053 398C150.573 398 150.157 397.925 149.805 397.776C149.453 397.627 149.181 397.376 148.989 397.024C148.808 396.661 148.717 396.176 148.717 395.568V391.104H147.325V389.968H148.717L148.893 388.032H150.061V389.968H152.413V391.104H150.061V395.568C150.061 396.069 150.163 396.411 150.365 396.592C150.568 396.763 150.925 396.848 151.437 396.848H152.301V398H151.053ZM154.279 398V389.968H155.623V398H154.279ZM154.951 388.24C154.685 388.24 154.461 388.155 154.279 387.984C154.109 387.803 154.023 387.579 154.023 387.312C154.023 387.045 154.109 386.832 154.279 386.672C154.461 386.501 154.685 386.416 154.951 386.416C155.207 386.416 155.426 386.501 155.607 386.672C155.789 386.832 155.879 387.045 155.879 387.312C155.879 387.579 155.789 387.803 155.607 387.984C155.426 388.155 155.207 388.24 154.951 388.24ZM161.579 398.192C160.833 398.192 160.161 398.021 159.563 397.68C158.966 397.328 158.491 396.837 158.139 396.208C157.798 395.579 157.627 394.837 157.627 393.984C157.627 393.131 157.803 392.389 158.155 391.76C158.507 391.131 158.982 390.645 159.579 390.304C160.187 389.952 160.865 389.776 161.611 389.776C162.369 389.776 163.046 389.952 163.643 390.304C164.241 390.645 164.71 391.131 165.051 391.76C165.393 392.389 165.563 393.131 165.563 393.984C165.563 394.837 165.387 395.579 165.035 396.208C164.694 396.837 164.219 397.328 163.611 397.68C163.014 398.021 162.337 398.192 161.579 398.192ZM161.579 397.04C162.049 397.04 162.481 396.928 162.875 396.704C163.27 396.469 163.585 396.128 163.819 395.68C164.065 395.221 164.187 394.656 164.187 393.984C164.187 393.301 164.07 392.736 163.835 392.288C163.601 391.84 163.286 391.504 162.891 391.28C162.497 391.045 162.07 390.928 161.611 390.928C161.163 390.928 160.737 391.045 160.331 391.28C159.937 391.504 159.617 391.84 159.371 392.288C159.126 392.736 159.003 393.301 159.003 393.984C159.003 394.656 159.126 395.221 159.371 395.68C159.617 396.128 159.931 396.469 160.315 396.704C160.71 396.928 161.131 397.04 161.579 397.04ZM167.448 398V389.968H168.664L168.744 391.376C169 390.875 169.362 390.485 169.832 390.208C170.312 389.92 170.856 389.776 171.464 389.776C172.093 389.776 172.637 389.899 173.096 390.144C173.554 390.389 173.912 390.768 174.168 391.28C174.424 391.792 174.552 392.437 174.552 393.216V398H173.208V393.36C173.208 392.549 173.032 391.941 172.68 391.536C172.328 391.131 171.821 390.928 171.16 390.928C170.712 390.928 170.306 391.04 169.944 391.264C169.592 391.477 169.309 391.792 169.096 392.208C168.893 392.624 168.792 393.131 168.792 393.728V398H167.448Z" fill="#FFFCEC"/>
<rect x="496" y="24" width="448" height="344" rx="4" fill="#FFFEF6"/>
<g clip-path="url(#clip1_608_4004)">
<path d="M658.882 261.917H653V258.716L658.882 261.917Z" fill="#232B36"/>
<path d="M668.885 261.917H663.691L653 254.986V251.619L653.769 252.116L668.885 261.917Z" fill="#232B36"/>
<path d="M676.759 261.917H672.101L653 247.34V243.787L676.759 261.917Z" fill="#232B36"/>
<path d="M683.19 261.917H678.942L653 238.773V234.984L683.19 261.917Z" fill="#232B36"/>
<path d="M688.589 261.917H684.666L653 228.98V224.903L654.02 225.963L688.589 261.917Z" fill="#232B36"/>
<path d="M693.234 261.917H689.571L689.407 261.717L653 217.523V213.076L654.092 214.401L692.341 260.83L693.234 261.917Z" fill="#232B36"/>
<path d="M697.325 261.917H693.868L689.341 255.474L653 203.75V198.831L654.158 200.48L697.325 261.917Z" fill="#232B36"/>
<path d="M700.982 261.917H697.698L653 186.641V181.102L700.982 261.917Z" fill="#232B36"/>
<path d="M704.319 261.917H701.167L689.232 237.78L653 164.498V158.122L704.319 261.917Z" fill="#232B36"/>
<path d="M707.402 261.917H704.355L653 134.277V129H653.926L654.312 129.961L707.066 261.077L707.115 261.201L707.402 261.917Z" fill="#232B36"/>
<path d="M710.107 261.917H707.141L706.878 261.077L665.171 129H668.136L709.511 260.031L710.107 261.917Z" fill="#232B36"/>
<path d="M712.854 261.917H709.95L709.511 260.031L691.513 182.877L678.975 129.132L678.944 129H681.846L694.341 182.555L712.222 259.213L712.735 261.408L712.854 261.917Z" fill="#232B36"/>
<path d="M715.687 261.917H712.827L712.411 259.213L692.399 129.026L692.395 129H695.255L715.174 258.584L715.687 261.917Z" fill="#232B36"/>
<path d="M718.264 261.917H715.427L715.421 261.834L715.174 258.584L708.275 167.802L705.326 129H708.161L711.095 167.588L717.978 258.138L718.242 261.621L718.264 261.917Z" fill="#232B36"/>
<path d="M720.911 129L720.881 166.011L720.806 258.011L720.802 261.731V261.917H717.974V261.729L717.978 258.138L718.053 166.007L718.083 129H720.911Z" fill="#232B36"/>
<path d="M786 258.592V261.812L785.806 261.917H779.89L786 258.592Z" fill="#232B36"/>
<path d="M786 251.472V254.837L775.081 261.917H769.887L786 251.472Z" fill="#232B36"/>
<path d="M786 243.612V247.167L766.671 261.917H762.013L786 243.612Z" fill="#232B36"/>
<path d="M786 234.781V238.57L759.829 261.917H755.582L786 234.781Z" fill="#232B36"/>
<path d="M786 224.663V228.742L754.106 261.917H750.183L786 224.663Z" fill="#232B36"/>
<path d="M786 212.799V217.246L749.199 261.917H745.538L747.182 259.92L784.68 214.401L786 212.799Z" fill="#232B36"/>
<path d="M786 198.507V203.426L744.904 261.917H741.447L747.116 253.85L784.614 200.48L786 198.507Z" fill="#232B36"/>
<path d="M786 180.718V186.257L741.075 261.917H737.788L738.327 261.009L786 180.718Z" fill="#232B36"/>
<path d="M786 157.66V164.036L737.605 261.917H734.453L747.006 236.529L786 157.66Z" fill="#232B36"/>
<path d="M786 129V133.71L749.585 224.219L734.417 261.917H731.37L731.657 261.203L731.702 261.088L731.706 261.077L746.961 223.164L784.46 129.961L784.846 129H786Z" fill="#232B36"/>
<path d="M773.601 129L773.526 129.237L731.894 261.077L731.891 261.088L731.63 261.917H728.665L728.859 261.303L729.259 260.039L770.636 129H773.601Z" fill="#232B36"/>
<path d="M759.829 129L759.797 129.134L747.221 183.037L729.259 260.039L728.82 261.917H725.918L726.037 261.407L726.55 259.204L744.431 182.555L744.469 182.394L756.926 129H759.829Z" fill="#232B36"/>
<path d="M746.377 129L746.373 129.028L726.361 259.204L725.945 261.917H723.085L723.147 261.514L723.597 258.579L743.517 129H746.377Z" fill="#232B36"/>
<path d="M733.448 129L730.497 167.802L723.597 258.579L723.351 261.836L723.345 261.917H720.508L720.53 261.623L720.805 258.011L727.677 167.588L730.61 129H733.448Z" fill="#232B36"/>
<path d="M694.665 261.431L694.075 261.917H690.499V256.37L693.432 259.931L694.665 261.431Z" fill="#232B36"/>
<path d="M698.831 261.603L698.383 261.917H692.141L690.499 259.581V249.742L698.831 261.603Z" fill="#232B36"/>
<path d="M702.549 261.785L702.327 261.917H696.051L690.499 252.565V241.49L702.549 261.785Z" fill="#232B36"/>
<path d="M705.925 261.974L705.875 262L705.848 261.917H699.587L690.499 243.534V230.774L705.761 261.64L705.897 261.917L705.925 261.974Z" fill="#232B36"/>
<path d="M705.897 261.917L705.925 261.974L705.875 262L705.848 261.917H702.83L690.499 231.267V216.114L694.616 226.348L708.354 260.493L708.427 260.674L708.925 261.917H705.897Z" fill="#232B36"/>
<path d="M711.777 261.917H705.897L705.925 261.974L705.875 262L705.848 261.917L705.761 261.64L694.616 226.348L690.499 213.308V194.771C690.499 194.694 690.499 194.613 690.501 194.535L699.947 224.451L711.033 259.556L711.777 261.917Z" fill="#232B36"/>
<path d="M714.496 261.917H708.687L708.354 260.493L699.947 224.451L691.385 187.747C692.175 184.661 693.476 181.778 695.195 179.186L695.943 182.391L705.405 222.951L713.774 258.827L714.301 261.086L714.496 261.917Z" fill="#232B36"/>
<path d="M717.118 261.917H711.394L711.033 259.556L705.405 222.951L698.109 175.486C698.341 175.235 698.579 174.988 698.822 174.745C700.147 173.419 701.603 172.219 703.167 171.167L710.968 221.915L716.564 258.304L717.118 261.917Z" fill="#232B36"/>
<path d="M719.682 261.917H714.009L713.774 258.827L710.968 221.915L706.949 169.016C707.539 168.733 708.141 168.473 708.753 168.232C709.954 167.759 711.197 167.361 712.473 167.049L712.505 167.48L716.594 221.274L719.386 258.017L719.652 261.514L719.682 261.917Z" fill="#232B36"/>
<path d="M722.295 166.323L722.25 220.336L722.219 258.239L722.216 261.731V261.917H716.56V261.729L716.564 258.303L716.594 221.274L716.639 166.338C717.582 166.246 718.536 166.199 719.501 166.197H719.537C720.466 166.197 721.388 166.24 722.295 166.323Z" fill="#232B36"/>
<path d="M748.575 256.005V261.917H744.697L744.107 261.431L746.09 259.021L748.575 256.005Z" fill="#232B36"/>
<path d="M748.575 249.313V259.151L746.631 261.917H740.389L739.94 261.603L745.958 253.038L748.575 249.313Z" fill="#232B36"/>
<path d="M748.575 240.978V252.06L742.721 261.917H736.443L736.221 261.785L737.109 260.287L748.575 240.978Z" fill="#232B36"/>
<path d="M748.575 230.163V242.924L739.184 261.917H732.924L732.897 261.998L732.846 261.974L732.875 261.917L733.01 261.642L745.737 235.902L748.575 230.163Z" fill="#232B36"/>
<path d="M748.575 215.364V230.519L735.942 261.917H732.924L732.897 261.998L732.846 261.974L732.875 261.917H729.847L730.345 260.676L730.416 260.498L744.154 226.352L745.649 222.636L748.575 215.364Z" fill="#232B36"/>
<path d="M748.575 194.771V212.351L744.154 226.352L733.01 261.642L732.924 261.917L732.897 261.998L732.846 261.974L732.875 261.917H726.995L727.323 260.877L727.739 259.556V259.553L738.824 224.451L748.552 193.648C748.567 194.019 748.575 194.394 748.575 194.771Z" fill="#232B36"/>
<path d="M747.528 187.14L738.824 224.451L730.416 260.498L730.085 261.917H724.276L724.47 261.084L724.998 258.825L733.365 222.962V222.953L742.829 182.391L742.902 182.072L743.654 178.85C745.368 181.36 746.69 184.152 747.528 187.14Z" fill="#232B36"/>
<path d="M740.704 175.211L733.367 222.953V222.962L727.741 259.553V259.556L727.377 261.917H721.654L721.748 261.299L722.219 258.239L727.803 221.905L735.631 170.983C737.23 172.032 738.717 173.234 740.071 174.566L740.135 174.628C740.327 174.819 740.517 175.013 740.704 175.211Z" fill="#232B36"/>
<path d="M731.834 168.878L727.803 221.905L724.998 258.823L724.763 261.917H719.09L719.12 261.516L719.386 258.017L722.25 220.336L726.267 167.48L726.305 166.979C727.654 167.294 728.967 167.702 730.235 168.198C730.776 168.409 731.31 168.635 731.834 168.878Z" fill="#232B36"/>
<path d="M748.575 210.968H743.899V230.773H748.575V210.968Z" fill="#232B36"/>
<path d="M695.174 210.968H690.499V230.773H695.174V210.968Z" fill="#232B36"/>
</g>
<path d="M496.48 398L500.608 386.8H502.032L506.144 398H504.72L501.312 388.48L497.888 398H496.48ZM498.368 395.12L498.752 394.032H503.824L504.208 395.12H498.368ZM507.729 401.52V389.968H508.945L509.073 391.28C509.244 391.024 509.462 390.784 509.729 390.56C509.996 390.325 510.316 390.139 510.689 390C511.062 389.851 511.494 389.776 511.985 389.776C512.764 389.776 513.441 389.963 514.017 390.336C514.604 390.699 515.057 391.2 515.377 391.84C515.708 392.469 515.873 393.189 515.873 394C515.873 394.811 515.708 395.531 515.377 396.16C515.057 396.789 514.604 397.285 514.017 397.648C513.43 398.011 512.748 398.192 511.969 398.192C511.318 398.192 510.742 398.059 510.241 397.792C509.74 397.525 509.35 397.152 509.073 396.672V401.52H507.729ZM511.809 397.024C512.342 397.024 512.812 396.901 513.217 396.656C513.622 396.4 513.937 396.043 514.161 395.584C514.396 395.125 514.513 394.592 514.513 393.984C514.513 393.376 514.396 392.843 514.161 392.384C513.937 391.925 513.622 391.573 513.217 391.328C512.812 391.072 512.342 390.944 511.809 390.944C511.276 390.944 510.806 391.072 510.401 391.328C509.996 391.573 509.681 391.925 509.457 392.384C509.233 392.843 509.121 393.376 509.121 393.984C509.121 394.592 509.233 395.125 509.457 395.584C509.681 396.043 509.996 396.4 510.401 396.656C510.806 396.901 511.276 397.024 511.809 397.024ZM517.76 401.52V389.968H518.976L519.104 391.28C519.275 391.024 519.494 390.784 519.76 390.56C520.027 390.325 520.347 390.139 520.72 390C521.094 389.851 521.526 389.776 522.016 389.776C522.795 389.776 523.472 389.963 524.048 390.336C524.635 390.699 525.088 391.2 525.408 391.84C525.739 392.469 525.904 393.189 525.904 394C525.904 394.811 525.739 395.531 525.408 396.16C525.088 396.789 524.635 397.285 524.048 397.648C523.462 398.011 522.779 398.192 522 398.192C521.35 398.192 520.774 398.059 520.272 397.792C519.771 397.525 519.382 397.152 519.104 396.672V401.52H517.76ZM521.84 397.024C522.374 397.024 522.843 396.901 523.248 396.656C523.654 396.4 523.968 396.043 524.192 395.584C524.427 395.125 524.544 394.592 524.544 393.984C524.544 393.376 524.427 392.843 524.192 392.384C523.968 391.925 523.654 391.573 523.248 391.328C522.843 391.072 522.374 390.944 521.84 390.944C521.307 390.944 520.838 391.072 520.432 391.328C520.027 391.573 519.712 391.925 519.488 392.384C519.264 392.843 519.152 393.376 519.152 393.984C519.152 394.592 519.264 395.125 519.488 395.584C519.712 396.043 520.027 396.4 520.432 396.656C520.838 396.901 521.307 397.024 521.84 397.024ZM527.792 398V386.48H529.136V398H527.792ZM531.498 398V389.968H532.842V398H531.498ZM532.17 388.24C531.903 388.24 531.679 388.155 531.498 387.984C531.327 387.803 531.242 387.579 531.242 387.312C531.242 387.045 531.327 386.832 531.498 386.672C531.679 386.501 531.903 386.416 532.17 386.416C532.426 386.416 532.645 386.501 532.826 386.672C533.007 386.832 533.098 387.045 533.098 387.312C533.098 387.579 533.007 387.803 532.826 387.984C532.645 388.155 532.426 388.24 532.17 388.24ZM538.83 398.192C538.073 398.192 537.39 398.016 536.782 397.664C536.185 397.312 535.71 396.821 535.358 396.192C535.017 395.563 534.846 394.827 534.846 393.984C534.846 393.141 535.017 392.405 535.358 391.776C535.71 391.147 536.185 390.656 536.782 390.304C537.39 389.952 538.073 389.776 538.83 389.776C539.79 389.776 540.59 390.027 541.23 390.528C541.87 391.019 542.275 391.68 542.446 392.512H541.07C540.963 392.011 540.702 391.621 540.286 391.344C539.87 391.067 539.379 390.928 538.814 390.928C538.355 390.928 537.929 391.045 537.534 391.28C537.15 391.504 536.835 391.845 536.59 392.304C536.345 392.752 536.222 393.312 536.222 393.984C536.222 394.485 536.291 394.928 536.43 395.312C536.579 395.696 536.771 396.021 537.006 396.288C537.241 396.544 537.513 396.736 537.822 396.864C538.142 396.992 538.473 397.056 538.814 397.056C539.198 397.056 539.545 396.997 539.854 396.88C540.163 396.752 540.425 396.571 540.638 396.336C540.851 396.091 540.995 395.797 541.07 395.456H542.446C542.275 396.277 541.865 396.939 541.214 397.44C540.574 397.941 539.779 398.192 538.83 398.192ZM546.963 398.192C546.312 398.192 545.768 398.08 545.331 397.856C544.893 397.621 544.568 397.317 544.355 396.944C544.141 396.56 544.035 396.149 544.035 395.712C544.035 395.168 544.173 394.709 544.451 394.336C544.739 393.952 545.139 393.664 545.651 393.472C546.173 393.269 546.781 393.168 547.475 393.168H549.619C549.619 392.667 549.539 392.251 549.379 391.92C549.229 391.589 549.005 391.339 548.707 391.168C548.408 390.997 548.045 390.912 547.619 390.912C547.107 390.912 546.664 391.04 546.291 391.296C545.917 391.552 545.688 391.931 545.603 392.432H544.227C544.291 391.856 544.483 391.376 544.803 390.992C545.133 390.597 545.549 390.299 546.051 390.096C546.552 389.883 547.075 389.776 547.619 389.776C548.365 389.776 548.984 389.915 549.475 390.192C549.965 390.459 550.333 390.837 550.579 391.328C550.835 391.808 550.963 392.373 550.963 393.024V398H549.763L549.683 396.576C549.576 396.8 549.437 397.013 549.267 397.216C549.107 397.408 548.915 397.579 548.691 397.728C548.477 397.867 548.227 397.979 547.939 398.064C547.651 398.149 547.325 398.192 546.963 398.192ZM547.171 397.056C547.544 397.056 547.88 396.981 548.179 396.832C548.488 396.672 548.749 396.459 548.963 396.192C549.176 395.925 549.336 395.627 549.443 395.296C549.56 394.955 549.619 394.608 549.619 394.256V394.208H547.587C547.075 394.208 546.659 394.272 546.339 394.4C546.019 394.517 545.789 394.688 545.651 394.912C545.512 395.125 545.443 395.371 545.443 395.648C545.443 395.936 545.507 396.187 545.635 396.4C545.773 396.603 545.971 396.763 546.227 396.88C546.483 396.997 546.797 397.056 547.171 397.056ZM555.975 398C555.495 398 555.079 397.925 554.727 397.776C554.375 397.627 554.103 397.376 553.911 397.024C553.73 396.661 553.639 396.176 553.639 395.568V391.104H552.247V389.968H553.639L553.815 388.032H554.983V389.968H557.335V391.104H554.983V395.568C554.983 396.069 555.084 396.411 555.287 396.592C555.49 396.763 555.847 396.848 556.359 396.848H557.223V398H555.975ZM559.201 398V389.968H560.545V398H559.201ZM559.873 388.24C559.606 388.24 559.382 388.155 559.201 387.984C559.03 387.803 558.945 387.579 558.945 387.312C558.945 387.045 559.03 386.832 559.201 386.672C559.382 386.501 559.606 386.416 559.873 386.416C560.129 386.416 560.348 386.501 560.529 386.672C560.71 386.832 560.801 387.045 560.801 387.312C560.801 387.579 560.71 387.803 560.529 387.984C560.348 388.155 560.129 388.24 559.873 388.24ZM566.501 398.192C565.755 398.192 565.083 398.021 564.485 397.68C563.888 397.328 563.413 396.837 563.061 396.208C562.72 395.579 562.549 394.837 562.549 393.984C562.549 393.131 562.725 392.389 563.077 391.76C563.429 391.131 563.904 390.645 564.501 390.304C565.109 389.952 565.787 389.776 566.533 389.776C567.291 389.776 567.968 389.952 568.565 390.304C569.163 390.645 569.632 391.131 569.973 391.76C570.315 392.389 570.485 393.131 570.485 393.984C570.485 394.837 570.309 395.579 569.957 396.208C569.616 396.837 569.141 397.328 568.533 397.68C567.936 398.021 567.259 398.192 566.501 398.192ZM566.501 397.04C566.971 397.04 567.403 396.928 567.797 396.704C568.192 396.469 568.507 396.128 568.741 395.68C568.987 395.221 569.109 394.656 569.109 393.984C569.109 393.301 568.992 392.736 568.757 392.288C568.523 391.84 568.208 391.504 567.813 391.28C567.419 391.045 566.992 390.928 566.533 390.928C566.085 390.928 565.659 391.045 565.253 391.28C564.859 391.504 564.539 391.84 564.293 392.288C564.048 392.736 563.925 393.301 563.925 393.984C563.925 394.656 564.048 395.221 564.293 395.68C564.539 396.128 564.853 396.469 565.237 396.704C565.632 396.928 566.053 397.04 566.501 397.04ZM572.37 398V389.968H573.586L573.666 391.376C573.922 390.875 574.284 390.485 574.754 390.208C575.234 389.92 575.778 389.776 576.386 389.776C577.015 389.776 577.559 389.899 578.018 390.144C578.476 390.389 578.834 390.768 579.09 391.28C579.346 391.792 579.474 392.437 579.474 393.216V398H578.13V393.36C578.13 392.549 577.954 391.941 577.602 391.536C577.25 391.131 576.743 390.928 576.082 390.928C575.634 390.928 575.228 391.04 574.866 391.264C574.514 391.477 574.231 391.792 574.018 392.208C573.815 392.624 573.714 393.131 573.714 393.728V398H572.37ZM589.408 398.192C588.661 398.192 587.989 398.021 587.392 397.68C586.794 397.328 586.32 396.837 585.968 396.208C585.626 395.579 585.456 394.837 585.456 393.984C585.456 393.131 585.632 392.389 585.984 391.76C586.336 391.131 586.81 390.645 587.408 390.304C588.016 389.952 588.693 389.776 589.44 389.776C590.197 389.776 590.874 389.952 591.472 390.304C592.069 390.645 592.538 391.131 592.88 391.76C593.221 392.389 593.392 393.131 593.392 393.984C593.392 394.837 593.216 395.579 592.864 396.208C592.522 396.837 592.048 397.328 591.44 397.68C590.842 398.021 590.165 398.192 589.408 398.192ZM589.408 397.04C589.877 397.04 590.309 396.928 590.704 396.704C591.098 396.469 591.413 396.128 591.648 395.68C591.893 395.221 592.016 394.656 592.016 393.984C592.016 393.301 591.898 392.736 591.664 392.288C591.429 391.84 591.114 391.504 590.72 391.28C590.325 391.045 589.898 390.928 589.44 390.928C588.992 390.928 588.565 391.045 588.16 391.28C587.765 391.504 587.445 391.84 587.2 392.288C586.954 392.736 586.832 393.301 586.832 393.984C586.832 394.656 586.954 395.221 587.2 395.68C587.445 396.128 587.76 396.469 588.144 396.704C588.538 396.928 588.96 397.04 589.408 397.04ZM595.276 398V389.968H596.492L596.572 391.376C596.828 390.875 597.191 390.485 597.66 390.208C598.14 389.92 598.684 389.776 599.292 389.776C599.921 389.776 600.465 389.899 600.924 390.144C601.383 390.389 601.74 390.768 601.996 391.28C602.252 391.792 602.38 392.437 602.38 393.216V398H601.036V393.36C601.036 392.549 600.86 391.941 600.508 391.536C600.156 391.131 599.649 390.928 598.988 390.928C598.54 390.928 598.135 391.04 597.772 391.264C597.42 391.477 597.137 391.792 596.924 392.208C596.721 392.624 596.62 393.131 596.62 393.728V398H595.276ZM608.698 398V386.48H610.042V398H608.698ZM612.404 398V389.968H613.748V398H612.404ZM613.076 388.24C612.81 388.24 612.586 388.155 612.404 387.984C612.234 387.803 612.148 387.579 612.148 387.312C612.148 387.045 612.234 386.832 612.404 386.672C612.586 386.501 612.81 386.416 613.076 386.416C613.332 386.416 613.551 386.501 613.732 386.672C613.914 386.832 614.004 387.045 614.004 387.312C614.004 387.579 613.914 387.803 613.732 387.984C613.551 388.155 613.332 388.24 613.076 388.24ZM619.272 401.712C618.547 401.712 617.907 401.616 617.352 401.424C616.798 401.243 616.366 400.96 616.056 400.576C615.747 400.192 615.592 399.717 615.592 399.152C615.592 398.907 615.64 398.645 615.736 398.368C615.843 398.101 616.019 397.835 616.264 397.568C616.52 397.301 616.878 397.061 617.336 396.848L618.248 397.392C617.694 397.627 617.331 397.893 617.16 398.192C616.99 398.491 616.904 398.768 616.904 399.024C616.904 399.376 617.006 399.669 617.208 399.904C617.411 400.139 617.688 400.315 618.04 400.432C618.403 400.549 618.814 400.608 619.272 400.608C619.731 400.608 620.126 400.539 620.456 400.4C620.787 400.272 621.043 400.091 621.224 399.856C621.406 399.632 621.496 399.36 621.496 399.04C621.496 398.677 621.358 398.368 621.08 398.112C620.803 397.867 620.28 397.723 619.512 397.68C618.872 397.637 618.339 397.579 617.912 397.504C617.496 397.429 617.15 397.344 616.872 397.248C616.595 397.141 616.36 397.024 616.168 396.896C615.987 396.768 615.822 396.635 615.672 396.496V396.128L617.224 394.576L618.392 394.992L616.792 396.448L617 395.888C617.118 395.973 617.23 396.053 617.336 396.128C617.443 396.192 617.587 396.251 617.768 396.304C617.95 396.357 618.2 396.411 618.52 396.464C618.84 396.507 619.272 396.549 619.816 396.592C620.542 396.645 621.123 396.773 621.56 396.976C622.008 397.179 622.328 397.451 622.52 397.792C622.723 398.133 622.824 398.533 622.824 398.992C622.824 399.451 622.696 399.883 622.44 400.288C622.195 400.704 621.811 401.045 621.288 401.312C620.766 401.579 620.094 401.712 619.272 401.712ZM619.256 395.472C618.584 395.472 618.014 395.349 617.544 395.104C617.075 394.848 616.718 394.507 616.472 394.08C616.227 393.643 616.104 393.157 616.104 392.624C616.104 392.091 616.227 391.611 616.472 391.184C616.718 390.757 617.075 390.416 617.544 390.16C618.014 389.904 618.584 389.776 619.256 389.776C619.939 389.776 620.515 389.904 620.984 390.16C621.454 390.416 621.811 390.757 622.056 391.184C622.302 391.611 622.424 392.091 622.424 392.624C622.424 393.157 622.302 393.643 622.056 394.08C621.811 394.507 621.454 394.848 620.984 395.104C620.515 395.349 619.939 395.472 619.256 395.472ZM619.256 394.368C619.832 394.368 620.286 394.224 620.616 393.936C620.958 393.637 621.128 393.2 621.128 392.624C621.128 392.069 620.958 391.643 620.616 391.344C620.286 391.045 619.832 390.896 619.256 390.896C618.691 390.896 618.238 391.045 617.896 391.344C617.555 391.643 617.384 392.069 617.384 392.624C617.384 393.2 617.555 393.637 617.896 393.936C618.238 394.224 618.691 394.368 619.256 394.368ZM620.568 391.104L620.168 389.968H623.464V390.976L620.568 391.104ZM624.995 398V386.48H626.339V391.328C626.616 390.837 626.995 390.459 627.475 390.192C627.955 389.915 628.488 389.776 629.075 389.776C629.693 389.776 630.227 389.904 630.675 390.16C631.133 390.405 631.485 390.784 631.731 391.296C631.987 391.808 632.115 392.453 632.115 393.232V398H630.787V393.376C630.787 392.565 630.616 391.957 630.275 391.552C629.933 391.136 629.437 390.928 628.787 390.928C628.328 390.928 627.912 391.04 627.539 391.264C627.176 391.477 626.883 391.797 626.659 392.224C626.445 392.64 626.339 393.152 626.339 393.76V398H624.995ZM637.35 398C636.87 398 636.454 397.925 636.102 397.776C635.75 397.627 635.478 397.376 635.286 397.024C635.105 396.661 635.014 396.176 635.014 395.568V391.104H633.622V389.968H635.014L635.19 388.032H636.358V389.968H638.71V391.104H636.358V395.568C636.358 396.069 636.459 396.411 636.662 396.592C636.865 396.763 637.222 396.848 637.734 396.848H638.598V398H637.35ZM648.922 398.192C648.463 398.192 648.047 398.128 647.674 398C647.311 397.872 646.991 397.696 646.714 397.472C646.437 397.237 646.207 396.971 646.026 396.672L645.898 398H644.682V386.48H646.026V391.28C646.282 390.875 646.65 390.523 647.13 390.224C647.61 389.925 648.207 389.776 648.922 389.776C649.711 389.776 650.394 389.957 650.97 390.32C651.557 390.683 652.01 391.184 652.33 391.824C652.661 392.453 652.826 393.173 652.826 393.984C652.826 394.795 652.661 395.52 652.33 396.16C652.01 396.789 651.557 397.285 650.97 397.648C650.383 398.011 649.701 398.192 648.922 398.192ZM648.762 397.024C649.295 397.024 649.765 396.901 650.17 396.656C650.575 396.4 650.89 396.043 651.114 395.584C651.349 395.125 651.466 394.592 651.466 393.984C651.466 393.376 651.349 392.843 651.114 392.384C650.89 391.925 650.575 391.573 650.17 391.328C649.765 391.072 649.295 390.944 648.762 390.944C648.229 390.944 647.759 391.072 647.354 391.328C646.949 391.573 646.634 391.925 646.41 392.384C646.186 392.843 646.074 393.376 646.074 393.984C646.074 394.592 646.186 395.125 646.41 395.584C646.634 396.043 646.949 396.4 647.354 396.656C647.759 396.901 648.229 397.024 648.762 397.024ZM657.353 398.192C656.703 398.192 656.159 398.08 655.721 397.856C655.284 397.621 654.959 397.317 654.745 396.944C654.532 396.56 654.425 396.149 654.425 395.712C654.425 395.168 654.564 394.709 654.841 394.336C655.129 393.952 655.529 393.664 656.041 393.472C656.564 393.269 657.172 393.168 657.865 393.168H660.009C660.009 392.667 659.929 392.251 659.769 391.92C659.62 391.589 659.396 391.339 659.097 391.168C658.799 390.997 658.436 390.912 658.009 390.912C657.497 390.912 657.055 391.04 656.681 391.296C656.308 391.552 656.079 391.931 655.993 392.432H654.617C654.681 391.856 654.873 391.376 655.193 390.992C655.524 390.597 655.94 390.299 656.441 390.096C656.943 389.883 657.465 389.776 658.009 389.776C658.756 389.776 659.375 389.915 659.865 390.192C660.356 390.459 660.724 390.837 660.969 391.328C661.225 391.808 661.353 392.373 661.353 393.024V398H660.153L660.073 396.576C659.967 396.8 659.828 397.013 659.657 397.216C659.497 397.408 659.305 397.579 659.081 397.728C658.868 397.867 658.617 397.979 658.329 398.064C658.041 398.149 657.716 398.192 657.353 398.192ZM657.561 397.056C657.935 397.056 658.271 396.981 658.569 396.832C658.879 396.672 659.14 396.459 659.353 396.192C659.567 395.925 659.727 395.627 659.833 395.296C659.951 394.955 660.009 394.608 660.009 394.256V394.208H657.977C657.465 394.208 657.049 394.272 656.729 394.4C656.409 394.517 656.18 394.688 656.041 394.912C655.903 395.125 655.833 395.371 655.833 395.648C655.833 395.936 655.897 396.187 656.025 396.4C656.164 396.603 656.361 396.763 656.617 396.88C656.873 396.997 657.188 397.056 657.561 397.056ZM667.065 398.192C666.307 398.192 665.625 398.016 665.017 397.664C664.419 397.312 663.945 396.821 663.593 396.192C663.251 395.563 663.081 394.827 663.081 393.984C663.081 393.141 663.251 392.405 663.593 391.776C663.945 391.147 664.419 390.656 665.017 390.304C665.625 389.952 666.307 389.776 667.065 389.776C668.025 389.776 668.825 390.027 669.465 390.528C670.105 391.019 670.51 391.68 670.681 392.512H669.305C669.198 392.011 668.937 391.621 668.521 391.344C668.105 391.067 667.614 390.928 667.049 390.928C666.59 390.928 666.163 391.045 665.769 391.28C665.385 391.504 665.07 391.845 664.825 392.304C664.579 392.752 664.457 393.312 664.457 393.984C664.457 394.485 664.526 394.928 664.664 395.312C664.814 395.696 665.006 396.021 665.241 396.288C665.475 396.544 665.747 396.736 666.057 396.864C666.377 396.992 666.707 397.056 667.049 397.056C667.433 397.056 667.779 396.997 668.089 396.88C668.398 396.752 668.659 396.571 668.873 396.336C669.086 396.091 669.23 395.797 669.305 395.456H670.681C670.51 396.277 670.099 396.939 669.449 397.44C668.809 397.941 668.014 398.192 667.065 398.192ZM677.533 398L673.677 393.6L677.181 389.968H678.829L674.813 394.08L674.829 393.12L679.245 398H677.533ZM672.557 398V386.48H673.901V398H672.557ZM683.804 401.712C683.078 401.712 682.438 401.616 681.884 401.424C681.329 401.243 680.897 400.96 680.588 400.576C680.278 400.192 680.124 399.717 680.124 399.152C680.124 398.907 680.172 398.645 680.268 398.368C680.374 398.101 680.55 397.835 680.796 397.568C681.052 397.301 681.409 397.061 681.868 396.848L682.78 397.392C682.225 397.627 681.862 397.893 681.692 398.192C681.521 398.491 681.436 398.768 681.436 399.024C681.436 399.376 681.537 399.669 681.74 399.904C681.942 400.139 682.22 400.315 682.572 400.432C682.934 400.549 683.345 400.608 683.804 400.608C684.262 400.608 684.657 400.539 684.988 400.4C685.318 400.272 685.574 400.091 685.756 399.856C685.937 399.632 686.028 399.36 686.028 399.04C686.028 398.677 685.889 398.368 685.612 398.112C685.334 397.867 684.812 397.723 684.044 397.68C683.404 397.637 682.87 397.579 682.444 397.504C682.028 397.429 681.681 397.344 681.404 397.248C681.126 397.141 680.892 397.024 680.7 396.896C680.518 396.768 680.353 396.635 680.204 396.496V396.128L681.756 394.576L682.924 394.992L681.324 396.448L681.532 395.888C681.649 395.973 681.761 396.053 681.868 396.128C681.974 396.192 682.118 396.251 682.3 396.304C682.481 396.357 682.732 396.411 683.052 396.464C683.372 396.507 683.804 396.549 684.348 396.592C685.073 396.645 685.654 396.773 686.092 396.976C686.54 397.179 686.86 397.451 687.052 397.792C687.254 398.133 687.356 398.533 687.356 398.992C687.356 399.451 687.228 399.883 686.972 400.288C686.726 400.704 686.342 401.045 685.82 401.312C685.297 401.579 684.625 401.712 683.804 401.712ZM683.788 395.472C683.116 395.472 682.545 395.349 682.076 395.104C681.606 394.848 681.249 394.507 681.004 394.08C680.758 393.643 680.636 393.157 680.636 392.624C680.636 392.091 680.758 391.611 681.004 391.184C681.249 390.757 681.606 390.416 682.076 390.16C682.545 389.904 683.116 389.776 683.788 389.776C684.47 389.776 685.046 389.904 685.516 390.16C685.985 390.416 686.342 390.757 686.588 391.184C686.833 391.611 686.956 392.091 686.956 392.624C686.956 393.157 686.833 393.643 686.588 394.08C686.342 394.507 685.985 394.848 685.516 395.104C685.046 395.349 684.47 395.472 683.788 395.472ZM683.788 394.368C684.364 394.368 684.817 394.224 685.148 393.936C685.489 393.637 685.66 393.2 685.66 392.624C685.66 392.069 685.489 391.643 685.148 391.344C684.817 391.045 684.364 390.896 683.788 390.896C683.222 390.896 682.769 391.045 682.428 391.344C682.086 391.643 681.916 392.069 681.916 392.624C681.916 393.2 682.086 393.637 682.428 393.936C682.769 394.224 683.222 394.368 683.788 394.368ZM685.1 391.104L684.7 389.968H687.996V390.976L685.1 391.104ZM689.526 398V389.968H690.742L690.854 391.504C691.035 391.141 691.265 390.832 691.542 390.576C691.83 390.32 692.171 390.123 692.566 389.984C692.961 389.845 693.409 389.776 693.91 389.776V391.184H693.446C693.105 391.184 692.779 391.232 692.47 391.328C692.161 391.413 691.883 391.557 691.638 391.76C691.403 391.952 691.217 392.224 691.078 392.576C690.939 392.928 690.87 393.36 690.87 393.872V398H689.526ZM698.736 398.192C697.989 398.192 697.317 398.021 696.72 397.68C696.122 397.328 695.648 396.837 695.296 396.208C694.954 395.579 694.784 394.837 694.784 393.984C694.784 393.131 694.96 392.389 695.312 391.76C695.664 391.131 696.138 390.645 696.736 390.304C697.344 389.952 698.021 389.776 698.768 389.776C699.525 389.776 700.202 389.952 700.8 390.304C701.397 390.645 701.866 391.131 702.208 391.76C702.549 392.389 702.72 393.131 702.72 393.984C702.72 394.837 702.544 395.579 702.192 396.208C701.85 396.837 701.376 397.328 700.768 397.68C700.17 398.021 699.493 398.192 698.736 398.192ZM698.736 397.04C699.205 397.04 699.637 396.928 700.032 396.704C700.426 396.469 700.741 396.128 700.976 395.68C701.221 395.221 701.344 394.656 701.344 393.984C701.344 393.301 701.226 392.736 700.992 392.288C700.757 391.84 700.442 391.504 700.048 391.28C699.653 391.045 699.226 390.928 698.768 390.928C698.32 390.928 697.893 391.045 697.488 391.28C697.093 391.504 696.773 391.84 696.528 392.288C696.282 392.736 696.16 393.301 696.16 393.984C696.16 394.656 696.282 395.221 696.528 395.68C696.773 396.128 697.088 396.469 697.472 396.704C697.866 396.928 698.288 397.04 698.736 397.04ZM707.532 398.192C706.913 398.192 706.369 398.069 705.9 397.824C705.441 397.579 705.084 397.2 704.828 396.688C704.583 396.176 704.46 395.531 704.46 394.752V389.968H705.804V394.608C705.804 395.419 705.98 396.027 706.332 396.432C706.684 396.837 707.185 397.04 707.836 397.04C708.284 397.04 708.689 396.933 709.052 396.72C709.415 396.496 709.697 396.176 709.9 395.76C710.113 395.344 710.22 394.837 710.22 394.24V389.968H711.564V398H710.348L710.268 396.592C710.012 397.093 709.644 397.488 709.164 397.776C708.684 398.053 708.14 398.192 707.532 398.192ZM713.776 398V389.968H714.992L715.072 391.376C715.328 390.875 715.691 390.485 716.16 390.208C716.64 389.92 717.184 389.776 717.792 389.776C718.421 389.776 718.965 389.899 719.424 390.144C719.883 390.389 720.24 390.768 720.496 391.28C720.752 391.792 720.88 392.437 720.88 393.216V398H719.536V393.36C719.536 392.549 719.36 391.941 719.008 391.536C718.656 391.131 718.149 390.928 717.488 390.928C717.04 390.928 716.635 391.04 716.272 391.264C715.92 391.477 715.637 391.792 715.424 392.208C715.221 392.624 715.12 393.131 715.12 393.728V398H713.776ZM726.532 398.192C725.753 398.192 725.065 398.011 724.468 397.648C723.881 397.275 723.422 396.773 723.092 396.144C722.772 395.504 722.612 394.779 722.612 393.968C722.612 393.157 722.772 392.437 723.092 391.808C723.422 391.179 723.881 390.683 724.468 390.32C725.065 389.957 725.758 389.776 726.548 389.776C727.198 389.776 727.774 389.909 728.276 390.176C728.777 390.443 729.161 390.816 729.428 391.296V386.48H730.772V398H729.556L729.428 396.688C729.257 396.944 729.038 397.189 728.772 397.424C728.516 397.648 728.201 397.835 727.828 397.984C727.454 398.123 727.022 398.192 726.532 398.192ZM726.676 397.024C727.209 397.024 727.678 396.901 728.084 396.656C728.5 396.4 728.82 396.043 729.044 395.584C729.268 395.125 729.38 394.592 729.38 393.984C729.38 393.376 729.268 392.843 729.044 392.384C728.82 391.925 728.5 391.573 728.084 391.328C727.678 391.072 727.209 390.944 726.676 390.944C726.164 390.944 725.7 391.072 725.284 391.328C724.878 391.573 724.558 391.925 724.324 392.384C724.1 392.843 723.988 393.376 723.988 393.984C723.988 394.592 724.1 395.125 724.324 395.584C724.558 396.043 724.878 396.4 725.284 396.656C725.7 396.901 726.164 397.024 726.676 397.024Z" fill="#FFFCEC"/>
<rect x="960" y="24" width="448" height="344" rx="4" fill="#474747"/>
<g clip-path="url(#clip2_608_4004)">
<path d="M1122.88 261.917H1117V258.716L1122.88 261.917Z" fill="#FFFCEC"/>
<path d="M1132.88 261.917H1127.69L1117 254.986V251.619L1117.77 252.116L1132.88 261.917Z" fill="#FFFCEC"/>
<path d="M1140.76 261.917H1136.1L1117 247.34V243.787L1140.76 261.917Z" fill="#FFFCEC"/>
<path d="M1147.19 261.917H1142.94L1117 238.773V234.984L1147.19 261.917Z" fill="#FFFCEC"/>
<path d="M1152.59 261.917H1148.67L1117 228.98V224.903L1118.02 225.963L1152.59 261.917Z" fill="#FFFCEC"/>
<path d="M1157.23 261.917H1153.57L1153.41 261.717L1117 217.523V213.076L1118.09 214.401L1156.34 260.83L1157.23 261.917Z" fill="#FFFCEC"/>
<path d="M1161.33 261.917H1157.87L1153.34 255.474L1117 203.75V198.831L1118.16 200.48L1161.33 261.917Z" fill="#FFFCEC"/>
<path d="M1164.98 261.917H1161.7L1117 186.641V181.102L1164.98 261.917Z" fill="#FFFCEC"/>
<path d="M1168.32 261.917H1165.17L1153.23 237.78L1117 164.498V158.122L1168.32 261.917Z" fill="#FFFCEC"/>
<path d="M1171.4 261.917H1168.36L1117 134.277V129H1117.93L1118.31 129.961L1171.07 261.077L1171.12 261.201L1171.4 261.917Z" fill="#FFFCEC"/>
<path d="M1174.11 261.917H1171.14L1170.88 261.077L1129.17 129H1132.14L1173.51 260.031L1174.11 261.917Z" fill="#FFFCEC"/>
<path d="M1176.85 261.917H1173.95L1173.51 260.031L1155.51 182.877L1142.97 129.132L1142.94 129H1145.85L1158.34 182.555L1176.22 259.213L1176.73 261.408L1176.85 261.917Z" fill="#FFFCEC"/>
<path d="M1179.69 261.917H1176.83L1176.41 259.213L1156.4 129.026L1156.4 129H1159.26L1179.17 258.584L1179.69 261.917Z" fill="#FFFCEC"/>
<path d="M1182.26 261.917H1179.43L1179.42 261.834L1179.17 258.584L1172.27 167.802L1169.33 129H1172.16L1175.09 167.588L1181.98 258.138L1182.24 261.621L1182.26 261.917Z" fill="#FFFCEC"/>
<path d="M1184.91 129L1184.88 166.011L1184.81 258.011L1184.8 261.731V261.917H1181.97V261.729L1181.98 258.138L1182.05 166.007L1182.08 129H1184.91Z" fill="#FFFCEC"/>
<path d="M1250 258.592V261.812L1249.81 261.917H1243.89L1250 258.592Z" fill="#FFFCEC"/>
<path d="M1250 251.472V254.837L1239.08 261.917H1233.89L1250 251.472Z" fill="#FFFCEC"/>
<path d="M1250 243.612V247.167L1230.67 261.917H1226.01L1250 243.612Z" fill="#FFFCEC"/>
<path d="M1250 234.781V238.57L1223.83 261.917H1219.58L1250 234.781Z" fill="#FFFCEC"/>
<path d="M1250 224.663V228.742L1218.11 261.917H1214.18L1250 224.663Z" fill="#FFFCEC"/>
<path d="M1250 212.799V217.246L1213.2 261.917H1209.54L1211.18 259.92L1248.68 214.401L1250 212.799Z" fill="#FFFCEC"/>
<path d="M1250 198.507V203.426L1208.9 261.917H1205.45L1211.12 253.85L1248.61 200.48L1250 198.507Z" fill="#FFFCEC"/>
<path d="M1250 180.718V186.257L1205.08 261.917H1201.79L1202.33 261.009L1250 180.718Z" fill="#FFFCEC"/>
<path d="M1250 157.66V164.036L1201.6 261.917H1198.45L1211.01 236.529L1250 157.66Z" fill="#FFFCEC"/>
<path d="M1250 129V133.71L1213.59 224.219L1198.42 261.917H1195.37L1195.66 261.203L1195.7 261.088L1195.71 261.077L1210.96 223.164L1248.46 129.961L1248.85 129H1250Z" fill="#FFFCEC"/>
<path d="M1237.6 129L1237.53 129.237L1195.89 261.077L1195.89 261.088L1195.63 261.917H1192.66L1192.86 261.303L1193.26 260.039L1234.64 129H1237.6Z" fill="#FFFCEC"/>
<path d="M1223.83 129L1223.8 129.134L1211.22 183.037L1193.26 260.039L1192.82 261.917H1189.92L1190.04 261.407L1190.55 259.204L1208.43 182.555L1208.47 182.394L1220.93 129H1223.83Z" fill="#FFFCEC"/>
<path d="M1210.38 129L1210.37 129.028L1190.36 259.204L1189.94 261.917H1187.08L1187.15 261.514L1187.6 258.579L1207.52 129H1210.38Z" fill="#FFFCEC"/>
<path d="M1197.45 129L1194.5 167.802L1187.6 258.579L1187.35 261.836L1187.34 261.917H1184.51L1184.53 261.623L1184.81 258.011L1191.68 167.588L1194.61 129H1197.45Z" fill="#FFFCEC"/>
<path d="M1158.67 261.431L1158.08 261.917H1154.5V256.37L1157.43 259.931L1158.67 261.431Z" fill="#FFFCEC"/>
<path d="M1162.83 261.603L1162.38 261.917H1156.14L1154.5 259.581V249.742L1162.83 261.603Z" fill="#FFFCEC"/>
<path d="M1166.55 261.785L1166.33 261.917H1160.05L1154.5 252.565V241.49L1166.55 261.785Z" fill="#FFFCEC"/>
<path d="M1169.93 261.974L1169.87 262L1169.85 261.917H1163.59L1154.5 243.534V230.774L1169.76 261.64L1169.9 261.917L1169.93 261.974Z" fill="#FFFCEC"/>
<path d="M1169.9 261.917L1169.93 261.974L1169.87 262L1169.85 261.917H1166.83L1154.5 231.267V216.114L1158.62 226.348L1172.35 260.493L1172.43 260.674L1172.92 261.917H1169.9Z" fill="#FFFCEC"/>
<path d="M1175.78 261.917H1169.9L1169.93 261.974L1169.87 262L1169.85 261.917L1169.76 261.64L1158.62 226.348L1154.5 213.308V194.771C1154.5 194.694 1154.5 194.613 1154.5 194.535L1163.95 224.451L1175.03 259.556L1175.78 261.917Z" fill="#FFFCEC"/>
<path d="M1178.5 261.917H1172.69L1172.35 260.493L1163.95 224.451L1155.38 187.747C1156.17 184.661 1157.48 181.778 1159.19 179.186L1159.94 182.391L1169.41 222.951L1177.77 258.827L1178.3 261.086L1178.5 261.917Z" fill="#FFFCEC"/>
<path d="M1181.12 261.917H1175.39L1175.03 259.556L1169.41 222.951L1162.11 175.486C1162.34 175.235 1162.58 174.988 1162.82 174.745C1164.15 173.419 1165.6 172.219 1167.17 171.167L1174.97 221.915L1180.56 258.304L1181.12 261.917Z" fill="#FFFCEC"/>
<path d="M1183.68 261.917H1178.01L1177.77 258.827L1174.97 221.915L1170.95 169.016C1171.54 168.733 1172.14 168.473 1172.75 168.232C1173.95 167.759 1175.2 167.361 1176.47 167.049L1176.5 167.48L1180.59 221.274L1183.39 258.017L1183.65 261.514L1183.68 261.917Z" fill="#FFFCEC"/>
<path d="M1186.29 166.323L1186.25 220.336L1186.22 258.239L1186.22 261.731V261.917H1180.56V261.729L1180.56 258.303L1180.59 221.274L1180.64 166.338C1181.58 166.246 1182.54 166.199 1183.5 166.197H1183.54C1184.47 166.197 1185.39 166.24 1186.29 166.323Z" fill="#FFFCEC"/>
<path d="M1212.57 256.005V261.917H1208.7L1208.11 261.431L1210.09 259.021L1212.57 256.005Z" fill="#FFFCEC"/>
<path d="M1212.57 249.313V259.151L1210.63 261.917H1204.39L1203.94 261.603L1209.96 253.038L1212.57 249.313Z" fill="#FFFCEC"/>
<path d="M1212.57 240.978V252.06L1206.72 261.917H1200.44L1200.22 261.785L1201.11 260.287L1212.57 240.978Z" fill="#FFFCEC"/>
<path d="M1212.57 230.163V242.924L1203.18 261.917H1196.92L1196.9 261.998L1196.85 261.974L1196.87 261.917L1197.01 261.642L1209.74 235.902L1212.57 230.163Z" fill="#FFFCEC"/>
<path d="M1212.57 215.364V230.519L1199.94 261.917H1196.92L1196.9 261.998L1196.85 261.974L1196.87 261.917H1193.85L1194.34 260.676L1194.42 260.498L1208.15 226.352L1209.65 222.636L1212.57 215.364Z" fill="#FFFCEC"/>
<path d="M1212.57 194.771V212.351L1208.15 226.352L1197.01 261.642L1196.92 261.917L1196.9 261.998L1196.85 261.974L1196.87 261.917H1190.99L1191.32 260.877L1191.74 259.556V259.553L1202.82 224.451L1212.55 193.648C1212.57 194.019 1212.57 194.394 1212.57 194.771Z" fill="#FFFCEC"/>
<path d="M1211.53 187.14L1202.82 224.451L1194.42 260.498L1194.08 261.917H1188.28L1188.47 261.084L1189 258.825L1197.36 222.962V222.953L1206.83 182.391L1206.9 182.072L1207.65 178.85C1209.37 181.36 1210.69 184.152 1211.53 187.14Z" fill="#FFFCEC"/>
<path d="M1204.7 175.211L1197.37 222.953V222.962L1191.74 259.553V259.556L1191.38 261.917H1185.65L1185.75 261.299L1186.22 258.239L1191.8 221.905L1199.63 170.983C1201.23 172.032 1202.72 173.234 1204.07 174.566L1204.13 174.628C1204.33 174.819 1204.52 175.013 1204.7 175.211Z" fill="#FFFCEC"/>
<path d="M1195.83 168.878L1191.8 221.905L1189 258.823L1188.76 261.917H1183.09L1183.12 261.516L1183.39 258.017L1186.25 220.336L1190.27 167.48L1190.3 166.979C1191.65 167.294 1192.97 167.702 1194.24 168.198C1194.78 168.409 1195.31 168.635 1195.83 168.878Z" fill="#FFFCEC"/>
<path d="M1212.57 210.968H1207.9V230.773H1212.57V210.968Z" fill="#FFFCEC"/>
<path d="M1159.17 210.968H1154.5V230.773H1159.17V210.968Z" fill="#FFFCEC"/>
</g>
<path d="M960.48 398L964.608 386.8H966.032L970.144 398H968.72L965.312 388.48L961.888 398H960.48ZM962.368 395.12L962.752 394.032H967.824L968.208 395.12H962.368ZM971.745 401.52V389.968H972.961L973.089 391.28C973.259 391.024 973.478 390.784 973.745 390.56C974.011 390.325 974.331 390.139 974.705 390C975.078 389.851 975.51 389.776 976.001 389.776C976.779 389.776 977.457 389.963 978.033 390.336C978.619 390.699 979.073 391.2 979.393 391.84C979.723 392.469 979.889 393.189 979.889 394C979.889 394.811 979.723 395.531 979.393 396.16C979.073 396.789 978.619 397.285 978.033 397.648C977.446 398.011 976.763 398.192 975.985 398.192C975.334 398.192 974.758 398.059 974.257 397.792C973.755 397.525 973.366 397.152 973.089 396.672V401.52H971.745ZM975.825 397.024C976.358 397.024 976.827 396.901 977.233 396.656C977.638 396.4 977.953 396.043 978.177 395.584C978.411 395.125 978.529 394.592 978.529 393.984C978.529 393.376 978.411 392.843 978.177 392.384C977.953 391.925 977.638 391.573 977.233 391.328C976.827 391.072 976.358 390.944 975.825 390.944C975.291 390.944 974.822 391.072 974.417 391.328C974.011 391.573 973.697 391.925 973.473 392.384C973.249 392.843 973.137 393.376 973.137 393.984C973.137 394.592 973.249 395.125 973.473 395.584C973.697 396.043 974.011 396.4 974.417 396.656C974.822 396.901 975.291 397.024 975.825 397.024ZM981.698 401.52V389.968H982.914L983.042 391.28C983.212 391.024 983.431 390.784 983.698 390.56C983.964 390.325 984.284 390.139 984.658 390C985.031 389.851 985.463 389.776 985.954 389.776C986.732 389.776 987.41 389.963 987.986 390.336C988.572 390.699 989.026 391.2 989.346 391.84C989.676 392.469 989.842 393.189 989.842 394C989.842 394.811 989.676 395.531 989.346 396.16C989.026 396.789 988.572 397.285 987.986 397.648C987.399 398.011 986.716 398.192 985.938 398.192C985.287 398.192 984.711 398.059 984.21 397.792C983.708 397.525 983.319 397.152 983.042 396.672V401.52H981.698ZM985.778 397.024C986.311 397.024 986.78 396.901 987.186 396.656C987.591 396.4 987.906 396.043 988.13 395.584C988.364 395.125 988.482 394.592 988.482 393.984C988.482 393.376 988.364 392.843 988.13 392.384C987.906 391.925 987.591 391.573 987.186 391.328C986.78 391.072 986.311 390.944 985.778 390.944C985.244 390.944 984.775 391.072 984.37 391.328C983.964 391.573 983.65 391.925 983.426 392.384C983.202 392.843 983.09 393.376 983.09 393.984C983.09 394.592 983.202 395.125 983.426 395.584C983.65 396.043 983.964 396.4 984.37 396.656C984.775 396.901 985.244 397.024 985.778 397.024ZM991.651 398V386.48H992.995V398H991.651ZM995.404 398V389.968H996.748V398H995.404ZM996.076 388.24C995.81 388.24 995.586 388.155 995.404 387.984C995.234 387.803 995.148 387.579 995.148 387.312C995.148 387.045 995.234 386.832 995.404 386.672C995.586 386.501 995.81 386.416 996.076 386.416C996.332 386.416 996.551 386.501 996.732 386.672C996.914 386.832 997.004 387.045 997.004 387.312C997.004 387.579 996.914 387.803 996.732 387.984C996.551 388.155 996.332 388.24 996.076 388.24ZM1002.77 398.192C1002.01 398.192 1001.33 398.016 1000.72 397.664C1000.12 397.312 999.648 396.821 999.296 396.192C998.954 395.563 998.784 394.827 998.784 393.984C998.784 393.141 998.954 392.405 999.296 391.776C999.648 391.147 1000.12 390.656 1000.72 390.304C1001.33 389.952 1002.01 389.776 1002.77 389.776C1003.73 389.776 1004.53 390.027 1005.17 390.528C1005.81 391.019 1006.21 391.68 1006.38 392.512H1005.01C1004.9 392.011 1004.64 391.621 1004.22 391.344C1003.81 391.067 1003.32 390.928 1002.75 390.928C1002.29 390.928 1001.87 391.045 1001.47 391.28C1001.09 391.504 1000.77 391.845 1000.53 392.304C1000.28 392.752 1000.16 393.312 1000.16 393.984C1000.16 394.485 1000.23 394.928 1000.37 395.312C1000.52 395.696 1000.71 396.021 1000.94 396.288C1001.18 396.544 1001.45 396.736 1001.76 396.864C1002.08 396.992 1002.41 397.056 1002.75 397.056C1003.14 397.056 1003.48 396.997 1003.79 396.88C1004.1 396.752 1004.36 396.571 1004.58 396.336C1004.79 396.091 1004.93 395.797 1005.01 395.456H1006.38C1006.21 396.277 1005.8 396.939 1005.15 397.44C1004.51 397.941 1003.72 398.192 1002.77 398.192ZM1010.99 398.192C1010.34 398.192 1009.8 398.08 1009.36 397.856C1008.92 397.621 1008.6 397.317 1008.39 396.944C1008.17 396.56 1008.07 396.149 1008.07 395.712C1008.07 395.168 1008.2 394.709 1008.48 394.336C1008.77 393.952 1009.17 393.664 1009.68 393.472C1010.2 393.269 1010.81 393.168 1011.51 393.168H1013.65C1013.65 392.667 1013.57 392.251 1013.41 391.92C1013.26 391.589 1013.04 391.339 1012.74 391.168C1012.44 390.997 1012.08 390.912 1011.65 390.912C1011.14 390.912 1010.7 391.04 1010.32 391.296C1009.95 391.552 1009.72 391.931 1009.63 392.432H1008.26C1008.32 391.856 1008.51 391.376 1008.83 390.992C1009.16 390.597 1009.58 390.299 1010.08 390.096C1010.58 389.883 1011.11 389.776 1011.65 389.776C1012.4 389.776 1013.02 389.915 1013.51 390.192C1014 390.459 1014.36 390.837 1014.61 391.328C1014.87 391.808 1014.99 392.373 1014.99 393.024V398H1013.79L1013.71 396.576C1013.61 396.8 1013.47 397.013 1013.3 397.216C1013.14 397.408 1012.95 397.579 1012.72 397.728C1012.51 397.867 1012.26 397.979 1011.97 398.064C1011.68 398.149 1011.36 398.192 1010.99 398.192ZM1011.2 397.056C1011.58 397.056 1011.91 396.981 1012.21 396.832C1012.52 396.672 1012.78 396.459 1012.99 396.192C1013.21 395.925 1013.37 395.627 1013.47 395.296C1013.59 394.955 1013.65 394.608 1013.65 394.256V394.208H1011.62C1011.11 394.208 1010.69 394.272 1010.37 394.4C1010.05 394.517 1009.82 394.688 1009.68 394.912C1009.54 395.125 1009.47 395.371 1009.47 395.648C1009.47 395.936 1009.54 396.187 1009.67 396.4C1009.8 396.603 1010 396.763 1010.26 396.88C1010.51 396.997 1010.83 397.056 1011.2 397.056ZM1020.12 398C1019.64 398 1019.22 397.925 1018.87 397.776C1018.52 397.627 1018.24 397.376 1018.05 397.024C1017.87 396.661 1017.78 396.176 1017.78 395.568V391.104H1016.39V389.968H1017.78L1017.96 388.032H1019.12V389.968H1021.48V391.104H1019.12V395.568C1019.12 396.069 1019.23 396.411 1019.43 396.592C1019.63 396.763 1019.99 396.848 1020.5 396.848H1021.36V398H1020.12ZM1023.59 398V389.968H1024.94V398H1023.59ZM1024.26 388.24C1024 388.24 1023.77 388.155 1023.59 387.984C1023.42 387.803 1023.34 387.579 1023.34 387.312C1023.34 387.045 1023.42 386.832 1023.59 386.672C1023.77 386.501 1024 386.416 1024.26 386.416C1024.52 386.416 1024.74 386.501 1024.92 386.672C1025.1 386.832 1025.19 387.045 1025.19 387.312C1025.19 387.579 1025.1 387.803 1024.92 387.984C1024.74 388.155 1024.52 388.24 1024.26 388.24ZM1030.92 398.192C1030.18 398.192 1029.5 398.021 1028.91 397.68C1028.31 397.328 1027.84 396.837 1027.48 396.208C1027.14 395.579 1026.97 394.837 1026.97 393.984C1026.97 393.131 1027.15 392.389 1027.5 391.76C1027.85 391.131 1028.33 390.645 1028.92 390.304C1029.53 389.952 1030.21 389.776 1030.96 389.776C1031.71 389.776 1032.39 389.952 1032.99 390.304C1033.58 390.645 1034.05 391.131 1034.4 391.76C1034.74 392.389 1034.91 393.131 1034.91 393.984C1034.91 394.837 1034.73 395.579 1034.38 396.208C1034.04 396.837 1033.56 397.328 1032.96 397.68C1032.36 398.021 1031.68 398.192 1030.92 398.192ZM1030.92 397.04C1031.39 397.04 1031.82 396.928 1032.22 396.704C1032.61 396.469 1032.93 396.128 1033.16 395.68C1033.41 395.221 1033.53 394.656 1033.53 393.984C1033.53 393.301 1033.41 392.736 1033.18 392.288C1032.94 391.84 1032.63 391.504 1032.24 391.28C1031.84 391.045 1031.41 390.928 1030.96 390.928C1030.51 390.928 1030.08 391.045 1029.68 391.28C1029.28 391.504 1028.96 391.84 1028.72 392.288C1028.47 392.736 1028.35 393.301 1028.35 393.984C1028.35 394.656 1028.47 395.221 1028.72 395.68C1028.96 396.128 1029.28 396.469 1029.66 396.704C1030.05 396.928 1030.48 397.04 1030.92 397.04ZM1036.85 398V389.968H1038.07L1038.15 391.376C1038.41 390.875 1038.77 390.485 1039.24 390.208C1039.72 389.92 1040.26 389.776 1040.87 389.776C1041.5 389.776 1042.04 389.899 1042.5 390.144C1042.96 390.389 1043.32 390.768 1043.57 391.28C1043.83 391.792 1043.96 392.437 1043.96 393.216V398H1042.61V393.36C1042.61 392.549 1042.44 391.941 1042.09 391.536C1041.73 391.131 1041.23 390.928 1040.57 390.928C1040.12 390.928 1039.71 391.04 1039.35 391.264C1039 391.477 1038.72 391.792 1038.5 392.208C1038.3 392.624 1038.2 393.131 1038.2 393.728V398H1036.85ZM1054.02 398.192C1053.27 398.192 1052.6 398.021 1052 397.68C1051.4 397.328 1050.93 396.837 1050.58 396.208C1050.24 395.579 1050.06 394.837 1050.06 393.984C1050.06 393.131 1050.24 392.389 1050.59 391.76C1050.94 391.131 1051.42 390.645 1052.02 390.304C1052.62 389.952 1053.3 389.776 1054.05 389.776C1054.81 389.776 1055.48 389.952 1056.08 390.304C1056.68 390.645 1057.15 391.131 1057.49 391.76C1057.83 392.389 1058 393.131 1058 393.984C1058 394.837 1057.82 395.579 1057.47 396.208C1057.13 396.837 1056.66 397.328 1056.05 397.68C1055.45 398.021 1054.77 398.192 1054.02 398.192ZM1054.02 397.04C1054.49 397.04 1054.92 396.928 1055.31 396.704C1055.71 396.469 1056.02 396.128 1056.26 395.68C1056.5 395.221 1056.62 394.656 1056.62 393.984C1056.62 393.301 1056.51 392.736 1056.27 392.288C1056.04 391.84 1055.72 391.504 1055.33 391.28C1054.93 391.045 1054.51 390.928 1054.05 390.928C1053.6 390.928 1053.17 391.045 1052.77 391.28C1052.37 391.504 1052.05 391.84 1051.81 392.288C1051.56 392.736 1051.44 393.301 1051.44 393.984C1051.44 394.656 1051.56 395.221 1051.81 395.68C1052.05 396.128 1052.37 396.469 1052.75 396.704C1053.15 396.928 1053.57 397.04 1054.02 397.04ZM1059.95 398V389.968H1061.16L1061.24 391.376C1061.5 390.875 1061.86 390.485 1062.33 390.208C1062.81 389.92 1063.36 389.776 1063.96 389.776C1064.59 389.776 1065.14 389.899 1065.6 390.144C1066.05 390.389 1066.41 390.768 1066.67 391.28C1066.92 391.792 1067.05 392.437 1067.05 393.216V398H1065.71V393.36C1065.71 392.549 1065.53 391.941 1065.18 391.536C1064.83 391.131 1064.32 390.928 1063.66 390.928C1063.21 390.928 1062.81 391.04 1062.44 391.264C1062.09 391.477 1061.81 391.792 1061.6 392.208C1061.39 392.624 1061.29 393.131 1061.29 393.728V398H1059.95ZM1076.68 401.712C1075.95 401.712 1075.31 401.616 1074.76 401.424C1074.2 401.243 1073.77 400.96 1073.46 400.576C1073.15 400.192 1073 399.717 1073 399.152C1073 398.907 1073.05 398.645 1073.14 398.368C1073.25 398.101 1073.43 397.835 1073.67 397.568C1073.93 397.301 1074.28 397.061 1074.74 396.848L1075.65 397.392C1075.1 397.627 1074.74 397.893 1074.57 398.192C1074.4 398.491 1074.31 398.768 1074.31 399.024C1074.31 399.376 1074.41 399.669 1074.61 399.904C1074.82 400.139 1075.09 400.315 1075.45 400.432C1075.81 400.549 1076.22 400.608 1076.68 400.608C1077.14 400.608 1077.53 400.539 1077.86 400.4C1078.19 400.272 1078.45 400.091 1078.63 399.856C1078.81 399.632 1078.9 399.36 1078.9 399.04C1078.9 398.677 1078.76 398.368 1078.49 398.112C1078.21 397.867 1077.69 397.723 1076.92 397.68C1076.28 397.637 1075.75 397.579 1075.32 397.504C1074.9 397.429 1074.56 397.344 1074.28 397.248C1074 397.141 1073.77 397.024 1073.57 396.896C1073.39 396.768 1073.23 396.635 1073.08 396.496V396.128L1074.63 394.576L1075.8 394.992L1074.2 396.448L1074.41 395.888C1074.52 395.973 1074.64 396.053 1074.74 396.128C1074.85 396.192 1074.99 396.251 1075.17 396.304C1075.36 396.357 1075.61 396.411 1075.93 396.464C1076.25 396.507 1076.68 396.549 1077.22 396.592C1077.95 396.645 1078.53 396.773 1078.97 396.976C1079.41 397.179 1079.73 397.451 1079.93 397.792C1080.13 398.133 1080.23 398.533 1080.23 398.992C1080.23 399.451 1080.1 399.883 1079.85 400.288C1079.6 400.704 1079.22 401.045 1078.69 401.312C1078.17 401.579 1077.5 401.712 1076.68 401.712ZM1076.66 395.472C1075.99 395.472 1075.42 395.349 1074.95 395.104C1074.48 394.848 1074.12 394.507 1073.88 394.08C1073.63 393.643 1073.51 393.157 1073.51 392.624C1073.51 392.091 1073.63 391.611 1073.88 391.184C1074.12 390.757 1074.48 390.416 1074.95 390.16C1075.42 389.904 1075.99 389.776 1076.66 389.776C1077.35 389.776 1077.92 389.904 1078.39 390.16C1078.86 390.416 1079.22 390.757 1079.46 391.184C1079.71 391.611 1079.83 392.091 1079.83 392.624C1079.83 393.157 1079.71 393.643 1079.46 394.08C1079.22 394.507 1078.86 394.848 1078.39 395.104C1077.92 395.349 1077.35 395.472 1076.66 395.472ZM1076.66 394.368C1077.24 394.368 1077.69 394.224 1078.02 393.936C1078.36 393.637 1078.53 393.2 1078.53 392.624C1078.53 392.069 1078.36 391.643 1078.02 391.344C1077.69 391.045 1077.24 390.896 1076.66 390.896C1076.1 390.896 1075.64 391.045 1075.3 391.344C1074.96 391.643 1074.79 392.069 1074.79 392.624C1074.79 393.2 1074.96 393.637 1075.3 393.936C1075.64 394.224 1076.1 394.368 1076.66 394.368ZM1077.97 391.104L1077.57 389.968H1080.87V390.976L1077.97 391.104ZM1082.7 398V389.968H1083.91L1084.03 391.504C1084.21 391.141 1084.44 390.832 1084.71 390.576C1085 390.32 1085.34 390.123 1085.74 389.984C1086.13 389.845 1086.58 389.776 1087.08 389.776V391.184H1086.62C1086.28 391.184 1085.95 391.232 1085.64 391.328C1085.33 391.413 1085.06 391.557 1084.81 391.76C1084.58 391.952 1084.39 392.224 1084.25 392.576C1084.11 392.928 1084.04 393.36 1084.04 393.872V398H1082.7ZM1092.19 398.192C1091.44 398.192 1090.77 398.016 1090.19 397.664C1089.6 397.312 1089.14 396.821 1088.8 396.192C1088.46 395.563 1088.3 394.827 1088.3 393.984C1088.3 393.131 1088.46 392.395 1088.8 391.776C1089.13 391.147 1089.58 390.656 1090.17 390.304C1090.77 389.952 1091.45 389.776 1092.22 389.776C1093.01 389.776 1093.68 389.952 1094.24 390.304C1094.79 390.656 1095.21 391.115 1095.5 391.68C1095.8 392.245 1095.95 392.869 1095.95 393.552C1095.95 393.659 1095.95 393.771 1095.95 393.888C1095.95 394.005 1095.94 394.139 1095.93 394.288H1089.31V393.248H1094.62C1094.59 392.512 1094.34 391.941 1093.88 391.536C1093.44 391.12 1092.87 390.912 1092.19 390.912C1091.74 390.912 1091.32 391.019 1090.92 391.232C1090.53 391.435 1090.21 391.733 1089.96 392.128C1089.73 392.523 1089.61 393.019 1089.61 393.616V394.064C1089.61 394.725 1089.73 395.28 1089.98 395.728C1090.22 396.165 1090.54 396.496 1090.92 396.72C1091.32 396.944 1091.74 397.056 1092.19 397.056C1092.75 397.056 1093.22 396.933 1093.58 396.688C1093.95 396.432 1094.22 396.085 1094.4 395.648H1095.72C1095.58 396.139 1095.36 396.576 1095.04 396.96C1094.72 397.333 1094.32 397.632 1093.84 397.856C1093.37 398.08 1092.82 398.192 1092.19 398.192ZM1098.27 401.52L1100.23 397.104H1099.77L1096.62 389.968H1098.07L1100.7 396.096L1103.47 389.968H1104.86L1099.67 401.52H1098.27ZM1114.83 398.192C1114.37 398.192 1113.95 398.128 1113.58 398C1113.22 397.872 1112.9 397.696 1112.62 397.472C1112.34 397.237 1112.11 396.971 1111.93 396.672L1111.8 398H1110.59V386.48H1111.93V391.28C1112.19 390.875 1112.56 390.523 1113.04 390.224C1113.52 389.925 1114.11 389.776 1114.83 389.776C1115.62 389.776 1116.3 389.957 1116.88 390.32C1117.46 390.683 1117.92 391.184 1118.24 391.824C1118.57 392.453 1118.73 393.173 1118.73 393.984C1118.73 394.795 1118.57 395.52 1118.24 396.16C1117.92 396.789 1117.46 397.285 1116.88 397.648C1116.29 398.011 1115.61 398.192 1114.83 398.192ZM1114.67 397.024C1115.2 397.024 1115.67 396.901 1116.08 396.656C1116.48 396.4 1116.8 396.043 1117.02 395.584C1117.26 395.125 1117.37 394.592 1117.37 393.984C1117.37 393.376 1117.26 392.843 1117.02 392.384C1116.8 391.925 1116.48 391.573 1116.08 391.328C1115.67 391.072 1115.2 390.944 1114.67 390.944C1114.14 390.944 1113.67 391.072 1113.26 391.328C1112.86 391.573 1112.54 391.925 1112.32 392.384C1112.09 392.843 1111.98 393.376 1111.98 393.984C1111.98 394.592 1112.09 395.125 1112.32 395.584C1112.54 396.043 1112.86 396.4 1113.26 396.656C1113.67 396.901 1114.14 397.024 1114.67 397.024ZM1123.18 398.192C1122.53 398.192 1121.99 398.08 1121.55 397.856C1121.11 397.621 1120.79 397.317 1120.57 396.944C1120.36 396.56 1120.25 396.149 1120.25 395.712C1120.25 395.168 1120.39 394.709 1120.67 394.336C1120.96 393.952 1121.36 393.664 1121.87 393.472C1122.39 393.269 1123 393.168 1123.69 393.168H1125.84C1125.84 392.667 1125.76 392.251 1125.6 391.92C1125.45 391.589 1125.22 391.339 1124.93 391.168C1124.63 390.997 1124.26 390.912 1123.84 390.912C1123.33 390.912 1122.88 391.04 1122.51 391.296C1122.14 391.552 1121.91 391.931 1121.82 392.432H1120.45C1120.51 391.856 1120.7 391.376 1121.02 390.992C1121.35 390.597 1121.77 390.299 1122.27 390.096C1122.77 389.883 1123.29 389.776 1123.84 389.776C1124.58 389.776 1125.2 389.915 1125.69 390.192C1126.18 390.459 1126.55 390.837 1126.8 391.328C1127.05 391.808 1127.18 392.373 1127.18 393.024V398H1125.98L1125.9 396.576C1125.79 396.8 1125.66 397.013 1125.49 397.216C1125.33 397.408 1125.13 397.579 1124.91 397.728C1124.7 397.867 1124.45 397.979 1124.16 398.064C1123.87 398.149 1123.54 398.192 1123.18 398.192ZM1123.39 397.056C1123.76 397.056 1124.1 396.981 1124.4 396.832C1124.71 396.672 1124.97 396.459 1125.18 396.192C1125.39 395.925 1125.55 395.627 1125.66 395.296C1125.78 394.955 1125.84 394.608 1125.84 394.256V394.208H1123.81C1123.29 394.208 1122.88 394.272 1122.56 394.4C1122.24 394.517 1122.01 394.688 1121.87 394.912C1121.73 395.125 1121.66 395.371 1121.66 395.648C1121.66 395.936 1121.73 396.187 1121.85 396.4C1121.99 396.603 1122.19 396.763 1122.45 396.88C1122.7 396.997 1123.02 397.056 1123.39 397.056ZM1133 398.192C1132.24 398.192 1131.56 398.016 1130.95 397.664C1130.36 397.312 1129.88 396.821 1129.53 396.192C1129.19 395.563 1129.02 394.827 1129.02 393.984C1129.02 393.141 1129.19 392.405 1129.53 391.776C1129.88 391.147 1130.36 390.656 1130.95 390.304C1131.56 389.952 1132.24 389.776 1133 389.776C1133.96 389.776 1134.76 390.027 1135.4 390.528C1136.04 391.019 1136.45 391.68 1136.62 392.512H1135.24C1135.14 392.011 1134.87 391.621 1134.46 391.344C1134.04 391.067 1133.55 390.928 1132.99 390.928C1132.53 390.928 1132.1 391.045 1131.71 391.28C1131.32 391.504 1131.01 391.845 1130.76 392.304C1130.52 392.752 1130.39 393.312 1130.39 393.984C1130.39 394.485 1130.46 394.928 1130.6 395.312C1130.75 395.696 1130.94 396.021 1131.18 396.288C1131.41 396.544 1131.68 396.736 1131.99 396.864C1132.31 396.992 1132.64 397.056 1132.99 397.056C1133.37 397.056 1133.72 396.997 1134.03 396.88C1134.34 396.752 1134.6 396.571 1134.81 396.336C1135.02 396.091 1135.17 395.797 1135.24 395.456H1136.62C1136.45 396.277 1136.04 396.939 1135.39 397.44C1134.75 397.941 1133.95 398.192 1133 398.192ZM1143.56 398L1139.71 393.6L1143.21 389.968H1144.86L1140.84 394.08L1140.86 393.12L1145.28 398H1143.56ZM1138.59 398V386.48H1139.93V398H1138.59ZM1149.85 401.712C1149.13 401.712 1148.49 401.616 1147.93 401.424C1147.38 401.243 1146.94 400.96 1146.63 400.576C1146.33 400.192 1146.17 399.717 1146.17 399.152C1146.17 398.907 1146.22 398.645 1146.31 398.368C1146.42 398.101 1146.6 397.835 1146.84 397.568C1147.1 397.301 1147.46 397.061 1147.91 396.848L1148.83 397.392C1148.27 397.627 1147.91 397.893 1147.74 398.192C1147.57 398.491 1147.48 398.768 1147.48 399.024C1147.48 399.376 1147.58 399.669 1147.79 399.904C1147.99 400.139 1148.27 400.315 1148.62 400.432C1148.98 400.549 1149.39 400.608 1149.85 400.608C1150.31 400.608 1150.7 400.539 1151.03 400.4C1151.37 400.272 1151.62 400.091 1151.8 399.856C1151.98 399.632 1152.07 399.36 1152.07 399.04C1152.07 398.677 1151.94 398.368 1151.66 398.112C1151.38 397.867 1150.86 397.723 1150.09 397.68C1149.45 397.637 1148.92 397.579 1148.49 397.504C1148.07 397.429 1147.73 397.344 1147.45 397.248C1147.17 397.141 1146.94 397.024 1146.75 396.896C1146.57 396.768 1146.4 396.635 1146.25 396.496V396.128L1147.8 394.576L1148.97 394.992L1147.37 396.448L1147.58 395.888C1147.7 395.973 1147.81 396.053 1147.91 396.128C1148.02 396.192 1148.17 396.251 1148.35 396.304C1148.53 396.357 1148.78 396.411 1149.1 396.464C1149.42 396.507 1149.85 396.549 1150.39 396.592C1151.12 396.645 1151.7 396.773 1152.14 396.976C1152.59 397.179 1152.91 397.451 1153.1 397.792C1153.3 398.133 1153.4 398.533 1153.4 398.992C1153.4 399.451 1153.27 399.883 1153.02 400.288C1152.77 400.704 1152.39 401.045 1151.87 401.312C1151.34 401.579 1150.67 401.712 1149.85 401.712ZM1149.83 395.472C1149.16 395.472 1148.59 395.349 1148.12 395.104C1147.65 394.848 1147.3 394.507 1147.05 394.08C1146.81 393.643 1146.68 393.157 1146.68 392.624C1146.68 392.091 1146.81 391.611 1147.05 391.184C1147.3 390.757 1147.65 390.416 1148.12 390.16C1148.59 389.904 1149.16 389.776 1149.83 389.776C1150.52 389.776 1151.09 389.904 1151.56 390.16C1152.03 390.416 1152.39 390.757 1152.63 391.184C1152.88 391.611 1153 392.091 1153 392.624C1153 393.157 1152.88 393.643 1152.63 394.08C1152.39 394.507 1152.03 394.848 1151.56 395.104C1151.09 395.349 1150.52 395.472 1149.83 395.472ZM1149.83 394.368C1150.41 394.368 1150.86 394.224 1151.19 393.936C1151.54 393.637 1151.71 393.2 1151.71 392.624C1151.71 392.069 1151.54 391.643 1151.19 391.344C1150.86 391.045 1150.41 390.896 1149.83 390.896C1149.27 390.896 1148.82 391.045 1148.47 391.344C1148.13 391.643 1147.96 392.069 1147.96 392.624C1147.96 393.2 1148.13 393.637 1148.47 393.936C1148.82 394.224 1149.27 394.368 1149.83 394.368ZM1151.15 391.104L1150.75 389.968H1154.04V390.976L1151.15 391.104ZM1155.87 398V389.968H1157.09L1157.2 391.504C1157.38 391.141 1157.61 390.832 1157.89 390.576C1158.17 390.32 1158.51 390.123 1158.91 389.984C1159.3 389.845 1159.75 389.776 1160.25 389.776V391.184H1159.79C1159.45 391.184 1159.12 391.232 1158.81 391.328C1158.5 391.413 1158.23 391.557 1157.98 391.76C1157.75 391.952 1157.56 392.224 1157.42 392.576C1157.28 392.928 1157.21 393.36 1157.21 393.872V398H1155.87ZM1165.42 398.192C1164.68 398.192 1164 398.021 1163.41 397.68C1162.81 397.328 1162.34 396.837 1161.98 396.208C1161.64 395.579 1161.47 394.837 1161.47 393.984C1161.47 393.131 1161.65 392.389 1162 391.76C1162.35 391.131 1162.83 390.645 1163.42 390.304C1164.03 389.952 1164.71 389.776 1165.46 389.776C1166.21 389.776 1166.89 389.952 1167.49 390.304C1168.08 390.645 1168.55 391.131 1168.9 391.76C1169.24 392.389 1169.41 393.131 1169.41 393.984C1169.41 394.837 1169.23 395.579 1168.88 396.208C1168.54 396.837 1168.06 397.328 1167.46 397.68C1166.86 398.021 1166.18 398.192 1165.42 398.192ZM1165.42 397.04C1165.89 397.04 1166.32 396.928 1166.72 396.704C1167.11 396.469 1167.43 396.128 1167.66 395.68C1167.91 395.221 1168.03 394.656 1168.03 393.984C1168.03 393.301 1167.91 392.736 1167.68 392.288C1167.44 391.84 1167.13 391.504 1166.74 391.28C1166.34 391.045 1165.91 390.928 1165.46 390.928C1165.01 390.928 1164.58 391.045 1164.18 391.28C1163.78 391.504 1163.46 391.84 1163.22 392.288C1162.97 392.736 1162.85 393.301 1162.85 393.984C1162.85 394.656 1162.97 395.221 1163.22 395.68C1163.46 396.128 1163.78 396.469 1164.16 396.704C1164.55 396.928 1164.98 397.04 1165.42 397.04ZM1174.28 398.192C1173.66 398.192 1173.12 398.069 1172.65 397.824C1172.19 397.579 1171.83 397.2 1171.58 396.688C1171.33 396.176 1171.21 395.531 1171.21 394.752V389.968H1172.55V394.608C1172.55 395.419 1172.73 396.027 1173.08 396.432C1173.43 396.837 1173.94 397.04 1174.59 397.04C1175.03 397.04 1175.44 396.933 1175.8 396.72C1176.16 396.496 1176.45 396.176 1176.65 395.76C1176.86 395.344 1176.97 394.837 1176.97 394.24V389.968H1178.31V398H1177.1L1177.02 396.592C1176.76 397.093 1176.39 397.488 1175.91 397.776C1175.43 398.053 1174.89 398.192 1174.28 398.192ZM1180.59 398V389.968H1181.8L1181.88 391.376C1182.14 390.875 1182.5 390.485 1182.97 390.208C1183.45 389.92 1184 389.776 1184.6 389.776C1185.23 389.776 1185.78 389.899 1186.24 390.144C1186.7 390.389 1187.05 390.768 1187.31 391.28C1187.56 391.792 1187.69 392.437 1187.69 393.216V398H1186.35V393.36C1186.35 392.549 1186.17 391.941 1185.82 391.536C1185.47 391.131 1184.96 390.928 1184.3 390.928C1183.85 390.928 1183.45 391.04 1183.08 391.264C1182.73 391.477 1182.45 391.792 1182.24 392.208C1182.03 392.624 1181.93 393.131 1181.93 393.728V398H1180.59ZM1193.42 398.192C1192.64 398.192 1191.96 398.011 1191.36 397.648C1190.77 397.275 1190.31 396.773 1189.98 396.144C1189.66 395.504 1189.5 394.779 1189.5 393.968C1189.5 393.157 1189.66 392.437 1189.98 391.808C1190.31 391.179 1190.77 390.683 1191.36 390.32C1191.96 389.957 1192.65 389.776 1193.44 389.776C1194.09 389.776 1194.67 389.909 1195.17 390.176C1195.67 390.443 1196.05 390.816 1196.32 391.296V386.48H1197.66V398H1196.45L1196.32 396.688C1196.15 396.944 1195.93 397.189 1195.66 397.424C1195.41 397.648 1195.09 397.835 1194.72 397.984C1194.35 398.123 1193.91 398.192 1193.42 398.192ZM1193.57 397.024C1194.1 397.024 1194.57 396.901 1194.97 396.656C1195.39 396.4 1195.71 396.043 1195.93 395.584C1196.16 395.125 1196.27 394.592 1196.27 393.984C1196.27 393.376 1196.16 392.843 1195.93 392.384C1195.71 391.925 1195.39 391.573 1194.97 391.328C1194.57 391.072 1194.1 390.944 1193.57 390.944C1193.05 390.944 1192.59 391.072 1192.17 391.328C1191.77 391.573 1191.45 391.925 1191.21 392.384C1190.99 392.843 1190.88 393.376 1190.88 393.984C1190.88 394.592 1190.99 395.125 1191.21 395.584C1191.45 396.043 1191.77 396.4 1192.17 396.656C1192.59 396.901 1193.05 397.024 1193.57 397.024Z" fill="#FFFCEC"/>
<defs>
<clipPath id="clip0_608_4004">
<rect width="133" height="133" fill="white" transform="translate(189 129)"/>
</clipPath>
<clipPath id="clip1_608_4004">
<rect width="133" height="133" fill="white" transform="translate(653 129)"/>
</clipPath>
<clipPath id="clip2_608_4004">
<rect width="133" height="133" fill="white" transform="translate(1117 129)"/>
</clipPath>
</defs>
</svg>